<mxfile host="www.draw.io" modified="2019-10-24T15:01:12.088Z" agent="Mozilla/5.0 (Windows NT 10.0; Win64; x64) AppleWebKit/537.36 (KHTML, like Gecko) Chrome/77.0.3865.90 Safari/537.36" etag="Aw0KUE6qxyQkAxkkFA6W" version="12.1.4" type="github" pages="1">
  <diagram id="XMM0JgJW_UZRh2vgTSEA" name="Page-1">
    <mxGraphModel dx="2457" dy="1513" grid="0" gridSize="10" guides="1" tooltips="1" connect="1" arrows="1" fold="1" page="1" pageScale="1" pageWidth="2336" pageHeight="1654" math="0" shadow="0">
      <root>
        <mxCell id="0"/>
        <mxCell id="1" parent="0"/>
        <mxCell id="v9bcbSfC0hrqcFNk9ZM1-30" value="" style="group" parent="1" vertex="1" connectable="0">
          <mxGeometry x="60" y="130" width="418" height="800" as="geometry"/>
        </mxCell>
        <mxCell id="v9bcbSfC0hrqcFNk9ZM1-1" value="" style="rounded=0;whiteSpace=wrap;html=1;" parent="v9bcbSfC0hrqcFNk9ZM1-30" vertex="1">
          <mxGeometry width="418" height="800" as="geometry"/>
        </mxCell>
        <mxCell id="v9bcbSfC0hrqcFNk9ZM1-2" value="" style="rounded=0;whiteSpace=wrap;html=1;" parent="v9bcbSfC0hrqcFNk9ZM1-30" vertex="1">
          <mxGeometry width="55" height="800" as="geometry"/>
        </mxCell>
        <mxCell id="v9bcbSfC0hrqcFNk9ZM1-3" value="" style="rounded=0;whiteSpace=wrap;html=1;" parent="v9bcbSfC0hrqcFNk9ZM1-30" vertex="1">
          <mxGeometry x="55" width="5" height="800" as="geometry"/>
        </mxCell>
        <mxCell id="v9bcbSfC0hrqcFNk9ZM1-4" value="" style="rounded=0;whiteSpace=wrap;html=1;" parent="v9bcbSfC0hrqcFNk9ZM1-30" vertex="1">
          <mxGeometry x="60" width="55" height="800" as="geometry"/>
        </mxCell>
        <mxCell id="v9bcbSfC0hrqcFNk9ZM1-5" value="" style="rounded=0;whiteSpace=wrap;html=1;" parent="v9bcbSfC0hrqcFNk9ZM1-30" vertex="1">
          <mxGeometry x="115" width="5" height="800" as="geometry"/>
        </mxCell>
        <mxCell id="v9bcbSfC0hrqcFNk9ZM1-6" value="" style="rounded=0;whiteSpace=wrap;html=1;" parent="v9bcbSfC0hrqcFNk9ZM1-30" vertex="1">
          <mxGeometry x="120" width="55" height="800" as="geometry"/>
        </mxCell>
        <mxCell id="v9bcbSfC0hrqcFNk9ZM1-7" value="" style="rounded=0;whiteSpace=wrap;html=1;" parent="v9bcbSfC0hrqcFNk9ZM1-30" vertex="1">
          <mxGeometry x="175" width="5" height="800" as="geometry"/>
        </mxCell>
        <mxCell id="v9bcbSfC0hrqcFNk9ZM1-8" value="" style="rounded=0;whiteSpace=wrap;html=1;" parent="v9bcbSfC0hrqcFNk9ZM1-30" vertex="1">
          <mxGeometry x="180" width="55" height="800" as="geometry"/>
        </mxCell>
        <mxCell id="v9bcbSfC0hrqcFNk9ZM1-9" value="" style="rounded=0;whiteSpace=wrap;html=1;" parent="v9bcbSfC0hrqcFNk9ZM1-30" vertex="1">
          <mxGeometry x="235" width="5" height="800" as="geometry"/>
        </mxCell>
        <mxCell id="v9bcbSfC0hrqcFNk9ZM1-10" value="" style="rounded=0;whiteSpace=wrap;html=1;" parent="v9bcbSfC0hrqcFNk9ZM1-30" vertex="1">
          <mxGeometry x="240" width="55" height="800" as="geometry"/>
        </mxCell>
        <mxCell id="v9bcbSfC0hrqcFNk9ZM1-11" value="" style="rounded=0;whiteSpace=wrap;html=1;" parent="v9bcbSfC0hrqcFNk9ZM1-30" vertex="1">
          <mxGeometry x="295" width="5" height="800" as="geometry"/>
        </mxCell>
        <mxCell id="v9bcbSfC0hrqcFNk9ZM1-12" value="" style="rounded=0;whiteSpace=wrap;html=1;" parent="v9bcbSfC0hrqcFNk9ZM1-30" vertex="1">
          <mxGeometry x="300" width="55" height="800" as="geometry"/>
        </mxCell>
        <mxCell id="v9bcbSfC0hrqcFNk9ZM1-13" value="" style="rounded=0;whiteSpace=wrap;html=1;" parent="v9bcbSfC0hrqcFNk9ZM1-30" vertex="1">
          <mxGeometry x="355" width="5" height="800" as="geometry"/>
        </mxCell>
        <mxCell id="v9bcbSfC0hrqcFNk9ZM1-14" value="" style="rounded=0;whiteSpace=wrap;html=1;" parent="v9bcbSfC0hrqcFNk9ZM1-30" vertex="1">
          <mxGeometry x="360" width="55" height="800" as="geometry"/>
        </mxCell>
        <mxCell id="1Ny6-iyPV7X26_jnm--a-98" value="" style="endArrow=none;dashed=1;html=1;fontSize=25;" edge="1" parent="v9bcbSfC0hrqcFNk9ZM1-30">
          <mxGeometry width="50" height="50" relative="1" as="geometry">
            <mxPoint as="sourcePoint"/>
            <mxPoint y="-32" as="targetPoint"/>
          </mxGeometry>
        </mxCell>
        <mxCell id="1Ny6-iyPV7X26_jnm--a-99" value="" style="endArrow=none;dashed=1;html=1;fontSize=25;" edge="1" parent="v9bcbSfC0hrqcFNk9ZM1-30">
          <mxGeometry width="50" height="50" relative="1" as="geometry">
            <mxPoint x="55" as="sourcePoint"/>
            <mxPoint x="55" y="-32.00000000000023" as="targetPoint"/>
          </mxGeometry>
        </mxCell>
        <mxCell id="1Ny6-iyPV7X26_jnm--a-100" value="" style="endArrow=none;dashed=1;html=1;fontSize=25;" edge="1" parent="v9bcbSfC0hrqcFNk9ZM1-30">
          <mxGeometry width="50" height="50" relative="1" as="geometry">
            <mxPoint x="60" as="sourcePoint"/>
            <mxPoint x="60" y="-32.00000000000023" as="targetPoint"/>
          </mxGeometry>
        </mxCell>
        <mxCell id="1Ny6-iyPV7X26_jnm--a-101" value="" style="endArrow=classic;startArrow=classic;html=1;fontSize=25;" edge="1" parent="v9bcbSfC0hrqcFNk9ZM1-30">
          <mxGeometry width="50" height="50" relative="1" as="geometry">
            <mxPoint y="-15" as="sourcePoint"/>
            <mxPoint x="55" y="-15" as="targetPoint"/>
          </mxGeometry>
        </mxCell>
        <mxCell id="1Ny6-iyPV7X26_jnm--a-102" value="55" style="text;html=1;resizable=0;points=[];align=center;verticalAlign=middle;labelBackgroundColor=#ffffff;fontSize=18;" vertex="1" connectable="0" parent="1Ny6-iyPV7X26_jnm--a-101">
          <mxGeometry x="-0.1048" y="-3" relative="1" as="geometry">
            <mxPoint x="3" y="-2.5" as="offset"/>
          </mxGeometry>
        </mxCell>
        <mxCell id="1Ny6-iyPV7X26_jnm--a-103" value="" style="endArrow=classic;html=1;fontSize=12;" edge="1" parent="v9bcbSfC0hrqcFNk9ZM1-30">
          <mxGeometry width="50" height="50" relative="1" as="geometry">
            <mxPoint x="58" y="-53" as="sourcePoint"/>
            <mxPoint x="58" y="-31" as="targetPoint"/>
            <Array as="points">
              <mxPoint x="58" y="-53"/>
            </Array>
          </mxGeometry>
        </mxCell>
        <mxCell id="1Ny6-iyPV7X26_jnm--a-134" value="" style="endArrow=classic;html=1;fontSize=12;" edge="1" parent="v9bcbSfC0hrqcFNk9ZM1-30">
          <mxGeometry width="50" height="50" relative="1" as="geometry">
            <mxPoint x="117.5" y="-53.5" as="sourcePoint"/>
            <mxPoint x="117.5" y="-31.5" as="targetPoint"/>
            <Array as="points">
              <mxPoint x="117.5" y="-53.5"/>
            </Array>
          </mxGeometry>
        </mxCell>
        <mxCell id="v9bcbSfC0hrqcFNk9ZM1-33" value="" style="group" parent="1" vertex="1" connectable="0">
          <mxGeometry x="510" y="130" width="418" height="800" as="geometry"/>
        </mxCell>
        <mxCell id="v9bcbSfC0hrqcFNk9ZM1-34" value="" style="rounded=0;whiteSpace=wrap;html=1;" parent="v9bcbSfC0hrqcFNk9ZM1-33" vertex="1">
          <mxGeometry width="418" height="800" as="geometry"/>
        </mxCell>
        <mxCell id="v9bcbSfC0hrqcFNk9ZM1-35" value="" style="rounded=0;whiteSpace=wrap;html=1;" parent="v9bcbSfC0hrqcFNk9ZM1-33" vertex="1">
          <mxGeometry width="55" height="800" as="geometry"/>
        </mxCell>
        <mxCell id="v9bcbSfC0hrqcFNk9ZM1-36" value="" style="rounded=0;whiteSpace=wrap;html=1;" parent="v9bcbSfC0hrqcFNk9ZM1-33" vertex="1">
          <mxGeometry x="55" width="5" height="800" as="geometry"/>
        </mxCell>
        <mxCell id="v9bcbSfC0hrqcFNk9ZM1-37" value="" style="rounded=0;whiteSpace=wrap;html=1;" parent="v9bcbSfC0hrqcFNk9ZM1-33" vertex="1">
          <mxGeometry x="60" width="55" height="800" as="geometry"/>
        </mxCell>
        <mxCell id="v9bcbSfC0hrqcFNk9ZM1-38" value="" style="rounded=0;whiteSpace=wrap;html=1;" parent="v9bcbSfC0hrqcFNk9ZM1-33" vertex="1">
          <mxGeometry x="115" width="5" height="800" as="geometry"/>
        </mxCell>
        <mxCell id="v9bcbSfC0hrqcFNk9ZM1-39" value="" style="rounded=0;whiteSpace=wrap;html=1;" parent="v9bcbSfC0hrqcFNk9ZM1-33" vertex="1">
          <mxGeometry x="120" width="55" height="800" as="geometry"/>
        </mxCell>
        <mxCell id="v9bcbSfC0hrqcFNk9ZM1-40" value="" style="rounded=0;whiteSpace=wrap;html=1;" parent="v9bcbSfC0hrqcFNk9ZM1-33" vertex="1">
          <mxGeometry x="175" width="5" height="800" as="geometry"/>
        </mxCell>
        <mxCell id="v9bcbSfC0hrqcFNk9ZM1-41" value="" style="rounded=0;whiteSpace=wrap;html=1;" parent="v9bcbSfC0hrqcFNk9ZM1-33" vertex="1">
          <mxGeometry x="180" width="55" height="800" as="geometry"/>
        </mxCell>
        <mxCell id="v9bcbSfC0hrqcFNk9ZM1-42" value="" style="rounded=0;whiteSpace=wrap;html=1;" parent="v9bcbSfC0hrqcFNk9ZM1-33" vertex="1">
          <mxGeometry x="235" width="5" height="800" as="geometry"/>
        </mxCell>
        <mxCell id="v9bcbSfC0hrqcFNk9ZM1-43" value="" style="rounded=0;whiteSpace=wrap;html=1;" parent="v9bcbSfC0hrqcFNk9ZM1-33" vertex="1">
          <mxGeometry x="240" width="55" height="800" as="geometry"/>
        </mxCell>
        <mxCell id="v9bcbSfC0hrqcFNk9ZM1-44" value="" style="rounded=0;whiteSpace=wrap;html=1;" parent="v9bcbSfC0hrqcFNk9ZM1-33" vertex="1">
          <mxGeometry x="295" width="5" height="800" as="geometry"/>
        </mxCell>
        <mxCell id="v9bcbSfC0hrqcFNk9ZM1-45" value="" style="rounded=0;whiteSpace=wrap;html=1;" parent="v9bcbSfC0hrqcFNk9ZM1-33" vertex="1">
          <mxGeometry x="300" width="55" height="800" as="geometry"/>
        </mxCell>
        <mxCell id="v9bcbSfC0hrqcFNk9ZM1-46" value="" style="rounded=0;whiteSpace=wrap;html=1;" parent="v9bcbSfC0hrqcFNk9ZM1-33" vertex="1">
          <mxGeometry x="355" width="5" height="800" as="geometry"/>
        </mxCell>
        <mxCell id="v9bcbSfC0hrqcFNk9ZM1-47" value="" style="rounded=0;whiteSpace=wrap;html=1;" parent="v9bcbSfC0hrqcFNk9ZM1-33" vertex="1">
          <mxGeometry x="360" width="55" height="800" as="geometry"/>
        </mxCell>
        <mxCell id="v9bcbSfC0hrqcFNk9ZM1-77" value="背板左边隐形门（418mm）" style="text;html=1;resizable=0;points=[];autosize=1;align=left;verticalAlign=top;spacingTop=-4;fontSize=25;" parent="1" vertex="1">
          <mxGeometry x="100" y="4.5" width="318" height="30" as="geometry"/>
        </mxCell>
        <mxCell id="v9bcbSfC0hrqcFNk9ZM1-79" value="背板右边隐形门（418mm）&lt;br&gt;同左边&lt;br&gt;" style="text;html=1;resizable=0;points=[];autosize=1;align=left;verticalAlign=top;spacingTop=-4;fontSize=25;" parent="1" vertex="1">
          <mxGeometry x="576.5" y="51.5" width="318" height="59" as="geometry"/>
        </mxCell>
        <mxCell id="v9bcbSfC0hrqcFNk9ZM1-80" value="背板固定板（840mm）" style="text;html=1;resizable=0;points=[];autosize=1;align=left;verticalAlign=top;spacingTop=-4;fontSize=25;" parent="1" vertex="1">
          <mxGeometry x="1251.5" y="7" width="268" height="30" as="geometry"/>
        </mxCell>
        <mxCell id="v9bcbSfC0hrqcFNk9ZM1-81" value="" style="group" parent="1" vertex="1" connectable="0">
          <mxGeometry x="970" y="130" width="840" height="800" as="geometry"/>
        </mxCell>
        <mxCell id="v9bcbSfC0hrqcFNk9ZM1-49" value="" style="rounded=0;whiteSpace=wrap;html=1;" parent="v9bcbSfC0hrqcFNk9ZM1-81" vertex="1">
          <mxGeometry width="840" height="800" as="geometry"/>
        </mxCell>
        <mxCell id="v9bcbSfC0hrqcFNk9ZM1-50" value="" style="rounded=0;whiteSpace=wrap;html=1;" parent="v9bcbSfC0hrqcFNk9ZM1-81" vertex="1">
          <mxGeometry width="55" height="800" as="geometry"/>
        </mxCell>
        <mxCell id="v9bcbSfC0hrqcFNk9ZM1-51" value="" style="rounded=0;whiteSpace=wrap;html=1;" parent="v9bcbSfC0hrqcFNk9ZM1-81" vertex="1">
          <mxGeometry x="55" width="5" height="800" as="geometry"/>
        </mxCell>
        <mxCell id="v9bcbSfC0hrqcFNk9ZM1-52" value="" style="rounded=0;whiteSpace=wrap;html=1;" parent="v9bcbSfC0hrqcFNk9ZM1-81" vertex="1">
          <mxGeometry x="60" width="55" height="800" as="geometry"/>
        </mxCell>
        <mxCell id="v9bcbSfC0hrqcFNk9ZM1-53" value="" style="rounded=0;whiteSpace=wrap;html=1;" parent="v9bcbSfC0hrqcFNk9ZM1-81" vertex="1">
          <mxGeometry x="115" width="5" height="800" as="geometry"/>
        </mxCell>
        <mxCell id="v9bcbSfC0hrqcFNk9ZM1-54" value="" style="rounded=0;whiteSpace=wrap;html=1;" parent="v9bcbSfC0hrqcFNk9ZM1-81" vertex="1">
          <mxGeometry x="120" width="55" height="800" as="geometry"/>
        </mxCell>
        <mxCell id="v9bcbSfC0hrqcFNk9ZM1-55" value="" style="rounded=0;whiteSpace=wrap;html=1;" parent="v9bcbSfC0hrqcFNk9ZM1-81" vertex="1">
          <mxGeometry x="175" width="5" height="800" as="geometry"/>
        </mxCell>
        <mxCell id="v9bcbSfC0hrqcFNk9ZM1-56" value="" style="rounded=0;whiteSpace=wrap;html=1;" parent="v9bcbSfC0hrqcFNk9ZM1-81" vertex="1">
          <mxGeometry x="180" width="55" height="800" as="geometry"/>
        </mxCell>
        <mxCell id="v9bcbSfC0hrqcFNk9ZM1-57" value="" style="rounded=0;whiteSpace=wrap;html=1;" parent="v9bcbSfC0hrqcFNk9ZM1-81" vertex="1">
          <mxGeometry x="235" width="5" height="800" as="geometry"/>
        </mxCell>
        <mxCell id="v9bcbSfC0hrqcFNk9ZM1-58" value="" style="rounded=0;whiteSpace=wrap;html=1;" parent="v9bcbSfC0hrqcFNk9ZM1-81" vertex="1">
          <mxGeometry x="240" width="55" height="800" as="geometry"/>
        </mxCell>
        <mxCell id="v9bcbSfC0hrqcFNk9ZM1-59" value="" style="rounded=0;whiteSpace=wrap;html=1;" parent="v9bcbSfC0hrqcFNk9ZM1-81" vertex="1">
          <mxGeometry x="295" width="5" height="800" as="geometry"/>
        </mxCell>
        <mxCell id="v9bcbSfC0hrqcFNk9ZM1-60" value="" style="rounded=0;whiteSpace=wrap;html=1;" parent="v9bcbSfC0hrqcFNk9ZM1-81" vertex="1">
          <mxGeometry x="300" width="55" height="800" as="geometry"/>
        </mxCell>
        <mxCell id="v9bcbSfC0hrqcFNk9ZM1-61" value="" style="rounded=0;whiteSpace=wrap;html=1;" parent="v9bcbSfC0hrqcFNk9ZM1-81" vertex="1">
          <mxGeometry x="355" width="5" height="800" as="geometry"/>
        </mxCell>
        <mxCell id="v9bcbSfC0hrqcFNk9ZM1-62" value="" style="rounded=0;whiteSpace=wrap;html=1;" parent="v9bcbSfC0hrqcFNk9ZM1-81" vertex="1">
          <mxGeometry x="360" width="55" height="800" as="geometry"/>
        </mxCell>
        <mxCell id="v9bcbSfC0hrqcFNk9ZM1-63" value="" style="rounded=0;whiteSpace=wrap;html=1;" parent="v9bcbSfC0hrqcFNk9ZM1-81" vertex="1">
          <mxGeometry x="415.5" width="5" height="800" as="geometry"/>
        </mxCell>
        <mxCell id="v9bcbSfC0hrqcFNk9ZM1-64" value="" style="rounded=0;whiteSpace=wrap;html=1;" parent="v9bcbSfC0hrqcFNk9ZM1-81" vertex="1">
          <mxGeometry x="420.5" width="55" height="800" as="geometry"/>
        </mxCell>
        <mxCell id="v9bcbSfC0hrqcFNk9ZM1-65" value="" style="rounded=0;whiteSpace=wrap;html=1;" parent="v9bcbSfC0hrqcFNk9ZM1-81" vertex="1">
          <mxGeometry x="475.5" width="5" height="800" as="geometry"/>
        </mxCell>
        <mxCell id="v9bcbSfC0hrqcFNk9ZM1-66" value="" style="rounded=0;whiteSpace=wrap;html=1;" parent="v9bcbSfC0hrqcFNk9ZM1-81" vertex="1">
          <mxGeometry x="480.5" width="55" height="800" as="geometry"/>
        </mxCell>
        <mxCell id="v9bcbSfC0hrqcFNk9ZM1-67" value="" style="rounded=0;whiteSpace=wrap;html=1;" parent="v9bcbSfC0hrqcFNk9ZM1-81" vertex="1">
          <mxGeometry x="535.5" width="5" height="800" as="geometry"/>
        </mxCell>
        <mxCell id="v9bcbSfC0hrqcFNk9ZM1-68" value="" style="rounded=0;whiteSpace=wrap;html=1;" parent="v9bcbSfC0hrqcFNk9ZM1-81" vertex="1">
          <mxGeometry x="540.5" width="55" height="800" as="geometry"/>
        </mxCell>
        <mxCell id="v9bcbSfC0hrqcFNk9ZM1-69" value="" style="rounded=0;whiteSpace=wrap;html=1;" parent="v9bcbSfC0hrqcFNk9ZM1-81" vertex="1">
          <mxGeometry x="595.5" width="5" height="800" as="geometry"/>
        </mxCell>
        <mxCell id="v9bcbSfC0hrqcFNk9ZM1-70" value="" style="rounded=0;whiteSpace=wrap;html=1;" parent="v9bcbSfC0hrqcFNk9ZM1-81" vertex="1">
          <mxGeometry x="600.5" width="55" height="800" as="geometry"/>
        </mxCell>
        <mxCell id="v9bcbSfC0hrqcFNk9ZM1-71" value="" style="rounded=0;whiteSpace=wrap;html=1;" parent="v9bcbSfC0hrqcFNk9ZM1-81" vertex="1">
          <mxGeometry x="655.5" width="5" height="800" as="geometry"/>
        </mxCell>
        <mxCell id="v9bcbSfC0hrqcFNk9ZM1-72" value="" style="rounded=0;whiteSpace=wrap;html=1;" parent="v9bcbSfC0hrqcFNk9ZM1-81" vertex="1">
          <mxGeometry x="660.5" width="55" height="800" as="geometry"/>
        </mxCell>
        <mxCell id="v9bcbSfC0hrqcFNk9ZM1-73" value="" style="rounded=0;whiteSpace=wrap;html=1;" parent="v9bcbSfC0hrqcFNk9ZM1-81" vertex="1">
          <mxGeometry x="715.5" width="5" height="800" as="geometry"/>
        </mxCell>
        <mxCell id="v9bcbSfC0hrqcFNk9ZM1-74" value="" style="rounded=0;whiteSpace=wrap;html=1;" parent="v9bcbSfC0hrqcFNk9ZM1-81" vertex="1">
          <mxGeometry x="720.5" width="55" height="800" as="geometry"/>
        </mxCell>
        <mxCell id="v9bcbSfC0hrqcFNk9ZM1-75" value="" style="rounded=0;whiteSpace=wrap;html=1;" parent="v9bcbSfC0hrqcFNk9ZM1-81" vertex="1">
          <mxGeometry x="775.5" width="5" height="800" as="geometry"/>
        </mxCell>
        <mxCell id="v9bcbSfC0hrqcFNk9ZM1-76" value="" style="rounded=0;whiteSpace=wrap;html=1;" parent="v9bcbSfC0hrqcFNk9ZM1-81" vertex="1">
          <mxGeometry x="780.5" width="55" height="800" as="geometry"/>
        </mxCell>
        <mxCell id="1Ny6-iyPV7X26_jnm--a-9" value="" style="group" vertex="1" connectable="0" parent="1">
          <mxGeometry x="276" y="1108" width="150" height="200" as="geometry"/>
        </mxCell>
        <mxCell id="1Ny6-iyPV7X26_jnm--a-1" value="" style="rounded=0;whiteSpace=wrap;html=1;fontSize=25;" vertex="1" parent="1Ny6-iyPV7X26_jnm--a-9">
          <mxGeometry width="150" height="200" as="geometry"/>
        </mxCell>
        <mxCell id="1Ny6-iyPV7X26_jnm--a-3" value="" style="rounded=0;whiteSpace=wrap;html=1;fontSize=25;" vertex="1" parent="1Ny6-iyPV7X26_jnm--a-9">
          <mxGeometry width="56" height="200" as="geometry"/>
        </mxCell>
        <mxCell id="1Ny6-iyPV7X26_jnm--a-4" value="" style="rounded=0;whiteSpace=wrap;html=1;fontSize=25;" vertex="1" parent="1Ny6-iyPV7X26_jnm--a-9">
          <mxGeometry x="56" width="6" height="200" as="geometry"/>
        </mxCell>
        <mxCell id="1Ny6-iyPV7X26_jnm--a-5" value="" style="rounded=0;whiteSpace=wrap;html=1;fontSize=25;" vertex="1" parent="1Ny6-iyPV7X26_jnm--a-9">
          <mxGeometry x="62" width="56" height="200" as="geometry"/>
        </mxCell>
        <mxCell id="1Ny6-iyPV7X26_jnm--a-6" value="" style="rounded=0;whiteSpace=wrap;html=1;fontSize=25;" vertex="1" parent="1Ny6-iyPV7X26_jnm--a-9">
          <mxGeometry x="118" width="6" height="200" as="geometry"/>
        </mxCell>
        <mxCell id="1Ny6-iyPV7X26_jnm--a-10" value="" style="group" vertex="1" connectable="0" parent="1">
          <mxGeometry x="276" y="1431" width="805" height="800" as="geometry"/>
        </mxCell>
        <mxCell id="v9bcbSfC0hrqcFNk9ZM1-83" value="" style="rounded=0;whiteSpace=wrap;html=1;" parent="1Ny6-iyPV7X26_jnm--a-10" vertex="1">
          <mxGeometry width="805" height="800" as="geometry"/>
        </mxCell>
        <mxCell id="v9bcbSfC0hrqcFNk9ZM1-111" value="" style="rounded=0;whiteSpace=wrap;html=1;" parent="1Ny6-iyPV7X26_jnm--a-10" vertex="1">
          <mxGeometry width="56" height="800" as="geometry"/>
        </mxCell>
        <mxCell id="v9bcbSfC0hrqcFNk9ZM1-112" value="" style="rounded=0;whiteSpace=wrap;html=1;" parent="1Ny6-iyPV7X26_jnm--a-10" vertex="1">
          <mxGeometry x="118" width="6" height="800" as="geometry"/>
        </mxCell>
        <mxCell id="v9bcbSfC0hrqcFNk9ZM1-113" value="" style="rounded=0;whiteSpace=wrap;html=1;" parent="1Ny6-iyPV7X26_jnm--a-10" vertex="1">
          <mxGeometry width="56" height="800" as="geometry"/>
        </mxCell>
        <mxCell id="v9bcbSfC0hrqcFNk9ZM1-114" value="" style="rounded=0;whiteSpace=wrap;html=1;" parent="1Ny6-iyPV7X26_jnm--a-10" vertex="1">
          <mxGeometry x="62" width="56" height="800" as="geometry"/>
        </mxCell>
        <mxCell id="v9bcbSfC0hrqcFNk9ZM1-115" value="" style="rounded=0;whiteSpace=wrap;html=1;" parent="1Ny6-iyPV7X26_jnm--a-10" vertex="1">
          <mxGeometry x="180" width="6" height="800" as="geometry"/>
        </mxCell>
        <mxCell id="v9bcbSfC0hrqcFNk9ZM1-116" value="" style="rounded=0;whiteSpace=wrap;html=1;" parent="1Ny6-iyPV7X26_jnm--a-10" vertex="1">
          <mxGeometry x="124" width="56" height="800" as="geometry"/>
        </mxCell>
        <mxCell id="v9bcbSfC0hrqcFNk9ZM1-117" value="" style="rounded=0;whiteSpace=wrap;html=1;" parent="1Ny6-iyPV7X26_jnm--a-10" vertex="1">
          <mxGeometry x="186" width="56" height="800" as="geometry"/>
        </mxCell>
        <mxCell id="v9bcbSfC0hrqcFNk9ZM1-118" value="" style="rounded=0;whiteSpace=wrap;html=1;" parent="1Ny6-iyPV7X26_jnm--a-10" vertex="1">
          <mxGeometry x="242" width="6" height="800" as="geometry"/>
        </mxCell>
        <mxCell id="v9bcbSfC0hrqcFNk9ZM1-119" value="" style="rounded=0;whiteSpace=wrap;html=1;" parent="1Ny6-iyPV7X26_jnm--a-10" vertex="1">
          <mxGeometry x="248" width="56" height="800" as="geometry"/>
        </mxCell>
        <mxCell id="v9bcbSfC0hrqcFNk9ZM1-120" value="" style="rounded=0;whiteSpace=wrap;html=1;" parent="1Ny6-iyPV7X26_jnm--a-10" vertex="1">
          <mxGeometry x="304" width="6" height="800" as="geometry"/>
        </mxCell>
        <mxCell id="v9bcbSfC0hrqcFNk9ZM1-121" value="" style="rounded=0;whiteSpace=wrap;html=1;" parent="1Ny6-iyPV7X26_jnm--a-10" vertex="1">
          <mxGeometry x="310" width="56" height="800" as="geometry"/>
        </mxCell>
        <mxCell id="v9bcbSfC0hrqcFNk9ZM1-122" value="" style="rounded=0;whiteSpace=wrap;html=1;" parent="1Ny6-iyPV7X26_jnm--a-10" vertex="1">
          <mxGeometry x="366" width="6" height="800" as="geometry"/>
        </mxCell>
        <mxCell id="v9bcbSfC0hrqcFNk9ZM1-123" value="" style="rounded=0;whiteSpace=wrap;html=1;" parent="1Ny6-iyPV7X26_jnm--a-10" vertex="1">
          <mxGeometry x="372" width="56" height="800" as="geometry"/>
        </mxCell>
        <mxCell id="v9bcbSfC0hrqcFNk9ZM1-124" value="" style="rounded=0;whiteSpace=wrap;html=1;" parent="1Ny6-iyPV7X26_jnm--a-10" vertex="1">
          <mxGeometry x="428" width="6" height="800" as="geometry"/>
        </mxCell>
        <mxCell id="v9bcbSfC0hrqcFNk9ZM1-125" value="" style="rounded=0;whiteSpace=wrap;html=1;" parent="1Ny6-iyPV7X26_jnm--a-10" vertex="1">
          <mxGeometry x="434" width="56" height="800" as="geometry"/>
        </mxCell>
        <mxCell id="v9bcbSfC0hrqcFNk9ZM1-126" value="" style="rounded=0;whiteSpace=wrap;html=1;" parent="1Ny6-iyPV7X26_jnm--a-10" vertex="1">
          <mxGeometry x="489.5" width="6" height="800" as="geometry"/>
        </mxCell>
        <mxCell id="v9bcbSfC0hrqcFNk9ZM1-127" value="" style="rounded=0;whiteSpace=wrap;html=1;" parent="1Ny6-iyPV7X26_jnm--a-10" vertex="1">
          <mxGeometry x="495.5" width="56" height="800" as="geometry"/>
        </mxCell>
        <mxCell id="v9bcbSfC0hrqcFNk9ZM1-128" value="" style="rounded=0;whiteSpace=wrap;html=1;" parent="1Ny6-iyPV7X26_jnm--a-10" vertex="1">
          <mxGeometry x="551.5" width="6" height="800" as="geometry"/>
        </mxCell>
        <mxCell id="v9bcbSfC0hrqcFNk9ZM1-129" value="" style="rounded=0;whiteSpace=wrap;html=1;" parent="1Ny6-iyPV7X26_jnm--a-10" vertex="1">
          <mxGeometry x="557.5" width="56" height="800" as="geometry"/>
        </mxCell>
        <mxCell id="v9bcbSfC0hrqcFNk9ZM1-130" value="" style="rounded=0;whiteSpace=wrap;html=1;" parent="1Ny6-iyPV7X26_jnm--a-10" vertex="1">
          <mxGeometry x="613.5" width="6" height="800" as="geometry"/>
        </mxCell>
        <mxCell id="v9bcbSfC0hrqcFNk9ZM1-131" value="" style="rounded=0;whiteSpace=wrap;html=1;" parent="1Ny6-iyPV7X26_jnm--a-10" vertex="1">
          <mxGeometry x="619.5" width="56" height="800" as="geometry"/>
        </mxCell>
        <mxCell id="v9bcbSfC0hrqcFNk9ZM1-132" value="" style="rounded=0;whiteSpace=wrap;html=1;" parent="1Ny6-iyPV7X26_jnm--a-10" vertex="1">
          <mxGeometry x="675.5" width="6" height="800" as="geometry"/>
        </mxCell>
        <mxCell id="v9bcbSfC0hrqcFNk9ZM1-133" value="" style="rounded=0;whiteSpace=wrap;html=1;" parent="1Ny6-iyPV7X26_jnm--a-10" vertex="1">
          <mxGeometry x="681.5" width="56" height="800" as="geometry"/>
        </mxCell>
        <mxCell id="v9bcbSfC0hrqcFNk9ZM1-134" value="" style="rounded=0;whiteSpace=wrap;html=1;" parent="1Ny6-iyPV7X26_jnm--a-10" vertex="1">
          <mxGeometry x="737.5" width="6" height="800" as="geometry"/>
        </mxCell>
        <mxCell id="v9bcbSfC0hrqcFNk9ZM1-135" value="" style="rounded=0;whiteSpace=wrap;html=1;" parent="1Ny6-iyPV7X26_jnm--a-10" vertex="1">
          <mxGeometry x="743.5" width="56" height="800" as="geometry"/>
        </mxCell>
        <mxCell id="1Ny6-iyPV7X26_jnm--a-18" value="" style="endArrow=none;dashed=1;html=1;fontSize=25;" edge="1" parent="1">
          <mxGeometry width="50" height="50" relative="1" as="geometry">
            <mxPoint x="276" y="1108" as="sourcePoint"/>
            <mxPoint x="276" y="1076" as="targetPoint"/>
          </mxGeometry>
        </mxCell>
        <mxCell id="1Ny6-iyPV7X26_jnm--a-19" value="" style="endArrow=none;dashed=1;html=1;fontSize=25;" edge="1" parent="1">
          <mxGeometry width="50" height="50" relative="1" as="geometry">
            <mxPoint x="276" y="1426" as="sourcePoint"/>
            <mxPoint x="276" y="1311" as="targetPoint"/>
          </mxGeometry>
        </mxCell>
        <mxCell id="1Ny6-iyPV7X26_jnm--a-20" value="" style="endArrow=none;dashed=1;html=1;fontSize=25;" edge="1" parent="1">
          <mxGeometry width="50" height="50" relative="1" as="geometry">
            <mxPoint x="425.5" y="1339.9999999999998" as="sourcePoint"/>
            <mxPoint x="425.5" y="1307.9999999999998" as="targetPoint"/>
          </mxGeometry>
        </mxCell>
        <mxCell id="1Ny6-iyPV7X26_jnm--a-21" value="" style="endArrow=classic;startArrow=classic;html=1;fontSize=25;" edge="1" parent="1">
          <mxGeometry width="50" height="50" relative="1" as="geometry">
            <mxPoint x="279" y="1326.5" as="sourcePoint"/>
            <mxPoint x="422" y="1327" as="targetPoint"/>
          </mxGeometry>
        </mxCell>
        <mxCell id="1Ny6-iyPV7X26_jnm--a-23" value="150" style="text;html=1;resizable=0;points=[];align=center;verticalAlign=middle;labelBackgroundColor=#ffffff;fontSize=25;" vertex="1" connectable="0" parent="1Ny6-iyPV7X26_jnm--a-21">
          <mxGeometry x="-0.1048" y="-3" relative="1" as="geometry">
            <mxPoint x="8" y="-1.5" as="offset"/>
          </mxGeometry>
        </mxCell>
        <mxCell id="1Ny6-iyPV7X26_jnm--a-22" value="" style="endArrow=none;dashed=1;html=1;fontSize=25;" edge="1" parent="1">
          <mxGeometry width="50" height="50" relative="1" as="geometry">
            <mxPoint x="1080.5" y="1429.4999999999998" as="sourcePoint"/>
            <mxPoint x="1080.5" y="1397.4999999999995" as="targetPoint"/>
          </mxGeometry>
        </mxCell>
        <mxCell id="1Ny6-iyPV7X26_jnm--a-24" value="" style="endArrow=none;dashed=1;html=1;fontSize=25;" edge="1" parent="1">
          <mxGeometry width="50" height="50" relative="1" as="geometry">
            <mxPoint x="332" y="1108" as="sourcePoint"/>
            <mxPoint x="332" y="1075.9999999999998" as="targetPoint"/>
          </mxGeometry>
        </mxCell>
        <mxCell id="1Ny6-iyPV7X26_jnm--a-25" value="" style="endArrow=none;dashed=1;html=1;fontSize=25;" edge="1" parent="1">
          <mxGeometry width="50" height="50" relative="1" as="geometry">
            <mxPoint x="338" y="1108" as="sourcePoint"/>
            <mxPoint x="338" y="1075.9999999999998" as="targetPoint"/>
          </mxGeometry>
        </mxCell>
        <mxCell id="1Ny6-iyPV7X26_jnm--a-26" value="" style="endArrow=none;dashed=1;html=1;fontSize=25;" edge="1" parent="1">
          <mxGeometry width="50" height="50" relative="1" as="geometry">
            <mxPoint x="400" y="1108" as="sourcePoint"/>
            <mxPoint x="400" y="1075.9999999999998" as="targetPoint"/>
          </mxGeometry>
        </mxCell>
        <mxCell id="1Ny6-iyPV7X26_jnm--a-27" value="" style="endArrow=none;dashed=1;html=1;fontSize=25;" edge="1" parent="1">
          <mxGeometry width="50" height="50" relative="1" as="geometry">
            <mxPoint x="426" y="1108" as="sourcePoint"/>
            <mxPoint x="426" y="1075.9999999999998" as="targetPoint"/>
          </mxGeometry>
        </mxCell>
        <mxCell id="1Ny6-iyPV7X26_jnm--a-29" value="" style="endArrow=classic;html=1;fontSize=12;" edge="1" parent="1">
          <mxGeometry width="50" height="50" relative="1" as="geometry">
            <mxPoint x="435" y="1065" as="sourcePoint"/>
            <mxPoint x="414" y="1087" as="targetPoint"/>
            <Array as="points">
              <mxPoint x="414" y="1065"/>
            </Array>
          </mxGeometry>
        </mxCell>
        <mxCell id="1Ny6-iyPV7X26_jnm--a-30" value="" style="endArrow=classic;startArrow=classic;html=1;fontSize=25;" edge="1" parent="1">
          <mxGeometry width="50" height="50" relative="1" as="geometry">
            <mxPoint x="275.9999999999999" y="1093" as="sourcePoint"/>
            <mxPoint x="331" y="1093" as="targetPoint"/>
          </mxGeometry>
        </mxCell>
        <mxCell id="1Ny6-iyPV7X26_jnm--a-31" value="56" style="text;html=1;resizable=0;points=[];align=center;verticalAlign=middle;labelBackgroundColor=#ffffff;fontSize=18;" vertex="1" connectable="0" parent="1Ny6-iyPV7X26_jnm--a-30">
          <mxGeometry x="-0.1048" y="-3" relative="1" as="geometry">
            <mxPoint x="3" y="-2.5" as="offset"/>
          </mxGeometry>
        </mxCell>
        <mxCell id="1Ny6-iyPV7X26_jnm--a-32" value="" style="endArrow=classic;startArrow=classic;html=1;fontSize=12;" edge="1" parent="1">
          <mxGeometry width="50" height="50" relative="1" as="geometry">
            <mxPoint x="399.5" y="1094" as="sourcePoint"/>
            <mxPoint x="425" y="1094" as="targetPoint"/>
          </mxGeometry>
        </mxCell>
        <mxCell id="1Ny6-iyPV7X26_jnm--a-33" value="26" style="text;html=1;resizable=0;points=[];autosize=1;align=left;verticalAlign=top;spacingTop=-4;fontSize=18;" vertex="1" parent="1">
          <mxGeometry x="436.5" y="1050.5" width="24" height="14" as="geometry"/>
        </mxCell>
        <mxCell id="1Ny6-iyPV7X26_jnm--a-34" value="" style="endArrow=classic;html=1;fontSize=12;" edge="1" parent="1">
          <mxGeometry width="50" height="50" relative="1" as="geometry">
            <mxPoint x="335" y="1056" as="sourcePoint"/>
            <mxPoint x="335" y="1078" as="targetPoint"/>
            <Array as="points">
              <mxPoint x="335" y="1056"/>
            </Array>
          </mxGeometry>
        </mxCell>
        <mxCell id="1Ny6-iyPV7X26_jnm--a-35" value="6" style="text;html=1;resizable=0;points=[];autosize=1;align=left;verticalAlign=top;spacingTop=-4;fontSize=18;" vertex="1" parent="1">
          <mxGeometry x="328" y="1035" width="16" height="14" as="geometry"/>
        </mxCell>
        <mxCell id="1Ny6-iyPV7X26_jnm--a-36" value="" style="endArrow=none;dashed=1;html=1;fontSize=25;" edge="1" parent="1">
          <mxGeometry width="50" height="50" relative="1" as="geometry">
            <mxPoint x="1075.5" y="1429.4999999999995" as="sourcePoint"/>
            <mxPoint x="1075.5" y="1397.4999999999995" as="targetPoint"/>
          </mxGeometry>
        </mxCell>
        <mxCell id="1Ny6-iyPV7X26_jnm--a-37" value="" style="endArrow=none;dashed=1;html=1;fontSize=25;" edge="1" parent="1">
          <mxGeometry width="50" height="50" relative="1" as="geometry">
            <mxPoint x="276" y="2287" as="sourcePoint"/>
            <mxPoint x="276" y="2229.5" as="targetPoint"/>
          </mxGeometry>
        </mxCell>
        <mxCell id="1Ny6-iyPV7X26_jnm--a-38" value="" style="endArrow=none;dashed=1;html=1;fontSize=25;" edge="1" parent="1">
          <mxGeometry width="50" height="50" relative="1" as="geometry">
            <mxPoint x="1081" y="2288.5" as="sourcePoint"/>
            <mxPoint x="1081" y="2231" as="targetPoint"/>
          </mxGeometry>
        </mxCell>
        <mxCell id="1Ny6-iyPV7X26_jnm--a-39" value="" style="endArrow=classic;startArrow=classic;html=1;fontSize=12;" edge="1" parent="1">
          <mxGeometry width="50" height="50" relative="1" as="geometry">
            <mxPoint x="276" y="2262" as="sourcePoint"/>
            <mxPoint x="1079" y="2262" as="targetPoint"/>
          </mxGeometry>
        </mxCell>
        <mxCell id="1Ny6-iyPV7X26_jnm--a-40" value="805" style="text;html=1;resizable=0;points=[];align=center;verticalAlign=middle;labelBackgroundColor=#ffffff;fontSize=25;" vertex="1" connectable="0" parent="1Ny6-iyPV7X26_jnm--a-39">
          <mxGeometry x="0.0933" y="2" relative="1" as="geometry">
            <mxPoint x="-30" y="1" as="offset"/>
          </mxGeometry>
        </mxCell>
        <mxCell id="1Ny6-iyPV7X26_jnm--a-41" value="" style="endArrow=classic;html=1;fontSize=12;" edge="1" parent="1">
          <mxGeometry width="50" height="50" relative="1" as="geometry">
            <mxPoint x="1078.5" y="1374" as="sourcePoint"/>
            <mxPoint x="1078.5" y="1396" as="targetPoint"/>
            <Array as="points">
              <mxPoint x="1078.5" y="1374"/>
            </Array>
          </mxGeometry>
        </mxCell>
        <mxCell id="1Ny6-iyPV7X26_jnm--a-42" value="5" style="text;html=1;resizable=0;points=[];autosize=1;align=left;verticalAlign=top;spacingTop=-4;fontSize=18;" vertex="1" parent="1">
          <mxGeometry x="1071.5" y="1353.5" width="24" height="30" as="geometry"/>
        </mxCell>
        <mxCell id="1Ny6-iyPV7X26_jnm--a-43" value="高台侧板&lt;br style=&quot;font-size: 26px;&quot;&gt;槽宽6mm，槽间距56mm，最右边剩余26mm不够一条" style="text;html=1;resizable=0;points=[];autosize=1;align=left;verticalAlign=top;spacingTop=-4;fontSize=26;" vertex="1" parent="1">
          <mxGeometry x="460.5" y="1166.5" width="367" height="35" as="geometry"/>
        </mxCell>
        <mxCell id="1Ny6-iyPV7X26_jnm--a-45" value="" style="endArrow=none;dashed=1;html=1;fontSize=25;" edge="1" parent="1">
          <mxGeometry width="50" height="50" relative="1" as="geometry">
            <mxPoint x="1013.5" y="1430.0000000000002" as="sourcePoint"/>
            <mxPoint x="1013.5" y="1397.9999999999998" as="targetPoint"/>
          </mxGeometry>
        </mxCell>
        <mxCell id="1Ny6-iyPV7X26_jnm--a-46" value="" style="endArrow=none;dashed=1;html=1;fontSize=25;" edge="1" parent="1">
          <mxGeometry width="50" height="50" relative="1" as="geometry">
            <mxPoint x="1019.5" y="1430.0000000000002" as="sourcePoint"/>
            <mxPoint x="1019.5" y="1397.9999999999998" as="targetPoint"/>
          </mxGeometry>
        </mxCell>
        <mxCell id="1Ny6-iyPV7X26_jnm--a-47" value="" style="endArrow=classic;startArrow=classic;html=1;fontSize=25;" edge="1" parent="1">
          <mxGeometry width="50" height="50" relative="1" as="geometry">
            <mxPoint x="957.5" y="1415.0000000000002" as="sourcePoint"/>
            <mxPoint x="1012.5" y="1415.0000000000002" as="targetPoint"/>
          </mxGeometry>
        </mxCell>
        <mxCell id="1Ny6-iyPV7X26_jnm--a-48" value="56" style="text;html=1;resizable=0;points=[];align=center;verticalAlign=middle;labelBackgroundColor=#ffffff;fontSize=18;" vertex="1" connectable="0" parent="1Ny6-iyPV7X26_jnm--a-47">
          <mxGeometry x="-0.1048" y="-3" relative="1" as="geometry">
            <mxPoint x="3" y="-2.5" as="offset"/>
          </mxGeometry>
        </mxCell>
        <mxCell id="1Ny6-iyPV7X26_jnm--a-49" value="" style="endArrow=classic;html=1;fontSize=12;" edge="1" parent="1">
          <mxGeometry width="50" height="50" relative="1" as="geometry">
            <mxPoint x="1016.5" y="1374.9999999999998" as="sourcePoint"/>
            <mxPoint x="1016.5" y="1397" as="targetPoint"/>
            <Array as="points">
              <mxPoint x="1016.5" y="1375"/>
            </Array>
          </mxGeometry>
        </mxCell>
        <mxCell id="1Ny6-iyPV7X26_jnm--a-50" value="6" style="text;html=1;resizable=0;points=[];autosize=1;align=left;verticalAlign=top;spacingTop=-4;fontSize=18;" vertex="1" parent="1">
          <mxGeometry x="1010.5" y="1355" width="16" height="14" as="geometry"/>
        </mxCell>
        <mxCell id="1Ny6-iyPV7X26_jnm--a-58" value="" style="endArrow=classic;startArrow=classic;html=1;fontSize=25;" edge="1" parent="1">
          <mxGeometry width="50" height="50" relative="1" as="geometry">
            <mxPoint x="1021" y="1416.0000000000002" as="sourcePoint"/>
            <mxPoint x="1076" y="1416.0000000000002" as="targetPoint"/>
          </mxGeometry>
        </mxCell>
        <mxCell id="1Ny6-iyPV7X26_jnm--a-59" value="56" style="text;html=1;resizable=0;points=[];align=center;verticalAlign=middle;labelBackgroundColor=#ffffff;fontSize=18;" vertex="1" connectable="0" parent="1Ny6-iyPV7X26_jnm--a-58">
          <mxGeometry x="-0.1048" y="-3" relative="1" as="geometry">
            <mxPoint x="3" y="-2.5" as="offset"/>
          </mxGeometry>
        </mxCell>
        <mxCell id="1Ny6-iyPV7X26_jnm--a-60" value="" style="endArrow=none;dashed=1;html=1;fontSize=25;" edge="1" parent="1">
          <mxGeometry width="50" height="50" relative="1" as="geometry">
            <mxPoint x="895.5" y="1431.0000000000002" as="sourcePoint"/>
            <mxPoint x="895.5" y="1399" as="targetPoint"/>
          </mxGeometry>
        </mxCell>
        <mxCell id="1Ny6-iyPV7X26_jnm--a-61" value="" style="endArrow=none;dashed=1;html=1;fontSize=25;" edge="1" parent="1">
          <mxGeometry width="50" height="50" relative="1" as="geometry">
            <mxPoint x="951.5" y="1431.0000000000002" as="sourcePoint"/>
            <mxPoint x="951.5" y="1398.9999999999998" as="targetPoint"/>
          </mxGeometry>
        </mxCell>
        <mxCell id="1Ny6-iyPV7X26_jnm--a-62" value="" style="endArrow=none;dashed=1;html=1;fontSize=25;" edge="1" parent="1">
          <mxGeometry width="50" height="50" relative="1" as="geometry">
            <mxPoint x="957.5" y="1431.0000000000002" as="sourcePoint"/>
            <mxPoint x="957.5" y="1398.9999999999998" as="targetPoint"/>
          </mxGeometry>
        </mxCell>
        <mxCell id="1Ny6-iyPV7X26_jnm--a-63" value="" style="endArrow=classic;startArrow=classic;html=1;fontSize=25;" edge="1" parent="1">
          <mxGeometry width="50" height="50" relative="1" as="geometry">
            <mxPoint x="895.5" y="1416.0000000000002" as="sourcePoint"/>
            <mxPoint x="950.5" y="1416.0000000000002" as="targetPoint"/>
          </mxGeometry>
        </mxCell>
        <mxCell id="1Ny6-iyPV7X26_jnm--a-64" value="56" style="text;html=1;resizable=0;points=[];align=center;verticalAlign=middle;labelBackgroundColor=#ffffff;fontSize=18;" vertex="1" connectable="0" parent="1Ny6-iyPV7X26_jnm--a-63">
          <mxGeometry x="-0.1048" y="-3" relative="1" as="geometry">
            <mxPoint x="3" y="-2.5" as="offset"/>
          </mxGeometry>
        </mxCell>
        <mxCell id="1Ny6-iyPV7X26_jnm--a-65" value="" style="endArrow=classic;html=1;fontSize=12;" edge="1" parent="1">
          <mxGeometry width="50" height="50" relative="1" as="geometry">
            <mxPoint x="954.5" y="1375.9999999999998" as="sourcePoint"/>
            <mxPoint x="954.5" y="1398" as="targetPoint"/>
            <Array as="points">
              <mxPoint x="954.5" y="1376"/>
            </Array>
          </mxGeometry>
        </mxCell>
        <mxCell id="1Ny6-iyPV7X26_jnm--a-66" value="6" style="text;html=1;resizable=0;points=[];autosize=1;align=left;verticalAlign=top;spacingTop=-4;fontSize=18;" vertex="1" parent="1">
          <mxGeometry x="948" y="1355" width="16" height="14" as="geometry"/>
        </mxCell>
        <mxCell id="1Ny6-iyPV7X26_jnm--a-68" value="侧板（805mm）&lt;br style=&quot;font-size: 26px;&quot;&gt;槽宽6mm，槽间距56mm，最右边剩余一条5mm的槽" style="text;html=1;resizable=0;points=[];autosize=1;align=left;verticalAlign=top;spacingTop=-4;fontSize=26;" vertex="1" parent="1">
          <mxGeometry x="1113.5" y="1610.5" width="358" height="35" as="geometry"/>
        </mxCell>
        <mxCell id="1Ny6-iyPV7X26_jnm--a-75" value="" style="endArrow=none;dashed=1;html=1;fontSize=25;" edge="1" parent="1">
          <mxGeometry width="50" height="50" relative="1" as="geometry">
            <mxPoint x="833.5" y="1431.0000000000005" as="sourcePoint"/>
            <mxPoint x="833.5" y="1399" as="targetPoint"/>
          </mxGeometry>
        </mxCell>
        <mxCell id="1Ny6-iyPV7X26_jnm--a-76" value="" style="endArrow=none;dashed=1;html=1;fontSize=25;" edge="1" parent="1">
          <mxGeometry width="50" height="50" relative="1" as="geometry">
            <mxPoint x="889.5" y="1431.0000000000005" as="sourcePoint"/>
            <mxPoint x="889.5" y="1398.9999999999995" as="targetPoint"/>
          </mxGeometry>
        </mxCell>
        <mxCell id="1Ny6-iyPV7X26_jnm--a-77" value="" style="endArrow=classic;startArrow=classic;html=1;fontSize=25;" edge="1" parent="1">
          <mxGeometry width="50" height="50" relative="1" as="geometry">
            <mxPoint x="833.5" y="1416.0000000000005" as="sourcePoint"/>
            <mxPoint x="888.5" y="1416.0000000000005" as="targetPoint"/>
          </mxGeometry>
        </mxCell>
        <mxCell id="1Ny6-iyPV7X26_jnm--a-78" value="56" style="text;html=1;resizable=0;points=[];align=center;verticalAlign=middle;labelBackgroundColor=#ffffff;fontSize=18;" vertex="1" connectable="0" parent="1Ny6-iyPV7X26_jnm--a-77">
          <mxGeometry x="-0.1048" y="-3" relative="1" as="geometry">
            <mxPoint x="3" y="-2.5" as="offset"/>
          </mxGeometry>
        </mxCell>
        <mxCell id="1Ny6-iyPV7X26_jnm--a-79" value="" style="endArrow=none;dashed=1;html=1;fontSize=25;" edge="1" parent="1">
          <mxGeometry width="50" height="50" relative="1" as="geometry">
            <mxPoint x="771.5" y="1431.0000000000005" as="sourcePoint"/>
            <mxPoint x="771.5" y="1399" as="targetPoint"/>
          </mxGeometry>
        </mxCell>
        <mxCell id="1Ny6-iyPV7X26_jnm--a-80" value="" style="endArrow=none;dashed=1;html=1;fontSize=25;" edge="1" parent="1">
          <mxGeometry width="50" height="50" relative="1" as="geometry">
            <mxPoint x="827.5" y="1431.0000000000005" as="sourcePoint"/>
            <mxPoint x="827.5" y="1398.9999999999995" as="targetPoint"/>
          </mxGeometry>
        </mxCell>
        <mxCell id="1Ny6-iyPV7X26_jnm--a-81" value="" style="endArrow=classic;startArrow=classic;html=1;fontSize=25;" edge="1" parent="1">
          <mxGeometry width="50" height="50" relative="1" as="geometry">
            <mxPoint x="771.5" y="1416.0000000000005" as="sourcePoint"/>
            <mxPoint x="826.5" y="1416.0000000000005" as="targetPoint"/>
          </mxGeometry>
        </mxCell>
        <mxCell id="1Ny6-iyPV7X26_jnm--a-82" value="56" style="text;html=1;resizable=0;points=[];align=center;verticalAlign=middle;labelBackgroundColor=#ffffff;fontSize=18;" vertex="1" connectable="0" parent="1Ny6-iyPV7X26_jnm--a-81">
          <mxGeometry x="-0.1048" y="-3" relative="1" as="geometry">
            <mxPoint x="3" y="-2.5" as="offset"/>
          </mxGeometry>
        </mxCell>
        <mxCell id="1Ny6-iyPV7X26_jnm--a-83" value="" style="endArrow=classic;html=1;fontSize=12;" edge="1" parent="1">
          <mxGeometry width="50" height="50" relative="1" as="geometry">
            <mxPoint x="892.5" y="1373.4999999999995" as="sourcePoint"/>
            <mxPoint x="892.5" y="1395.5" as="targetPoint"/>
            <Array as="points">
              <mxPoint x="892.5" y="1373.5"/>
            </Array>
          </mxGeometry>
        </mxCell>
        <mxCell id="1Ny6-iyPV7X26_jnm--a-84" value="6" style="text;html=1;resizable=0;points=[];autosize=1;align=left;verticalAlign=top;spacingTop=-4;fontSize=18;" vertex="1" parent="1">
          <mxGeometry x="886.5" y="1353.5" width="16" height="14" as="geometry"/>
        </mxCell>
        <mxCell id="1Ny6-iyPV7X26_jnm--a-85" value="" style="endArrow=classic;html=1;fontSize=12;" edge="1" parent="1">
          <mxGeometry width="50" height="50" relative="1" as="geometry">
            <mxPoint x="830.5" y="1374.4999999999995" as="sourcePoint"/>
            <mxPoint x="830.5" y="1396.5" as="targetPoint"/>
            <Array as="points">
              <mxPoint x="830.5" y="1374.5"/>
            </Array>
          </mxGeometry>
        </mxCell>
        <mxCell id="1Ny6-iyPV7X26_jnm--a-86" value="6" style="text;html=1;resizable=0;points=[];autosize=1;align=left;verticalAlign=top;spacingTop=-4;fontSize=18;" vertex="1" parent="1">
          <mxGeometry x="824" y="1353.5" width="16" height="14" as="geometry"/>
        </mxCell>
        <mxCell id="1Ny6-iyPV7X26_jnm--a-87" value="" style="endArrow=none;dashed=1;html=1;fontSize=25;" edge="1" parent="1">
          <mxGeometry width="50" height="50" relative="1" as="geometry">
            <mxPoint x="394.0000000000001" y="1108" as="sourcePoint"/>
            <mxPoint x="394.0000000000001" y="1075.9999999999998" as="targetPoint"/>
          </mxGeometry>
        </mxCell>
        <mxCell id="1Ny6-iyPV7X26_jnm--a-88" value="" style="endArrow=classic;startArrow=classic;html=1;fontSize=25;" edge="1" parent="1">
          <mxGeometry width="50" height="50" relative="1" as="geometry">
            <mxPoint x="338.4999999999999" y="1093.5" as="sourcePoint"/>
            <mxPoint x="393.5" y="1093.5" as="targetPoint"/>
          </mxGeometry>
        </mxCell>
        <mxCell id="1Ny6-iyPV7X26_jnm--a-89" value="56" style="text;html=1;resizable=0;points=[];align=center;verticalAlign=middle;labelBackgroundColor=#ffffff;fontSize=18;" vertex="1" connectable="0" parent="1Ny6-iyPV7X26_jnm--a-88">
          <mxGeometry x="-0.1048" y="-3" relative="1" as="geometry">
            <mxPoint x="3" y="-2.5" as="offset"/>
          </mxGeometry>
        </mxCell>
        <mxCell id="1Ny6-iyPV7X26_jnm--a-90" value="" style="endArrow=classic;html=1;fontSize=12;" edge="1" parent="1">
          <mxGeometry width="50" height="50" relative="1" as="geometry">
            <mxPoint x="397" y="1056" as="sourcePoint"/>
            <mxPoint x="397" y="1078" as="targetPoint"/>
            <Array as="points">
              <mxPoint x="397" y="1056"/>
            </Array>
          </mxGeometry>
        </mxCell>
        <mxCell id="1Ny6-iyPV7X26_jnm--a-91" value="6" style="text;html=1;resizable=0;points=[];autosize=1;align=left;verticalAlign=top;spacingTop=-4;fontSize=18;" vertex="1" parent="1">
          <mxGeometry x="390" y="1035" width="16" height="14" as="geometry"/>
        </mxCell>
        <mxCell id="1Ny6-iyPV7X26_jnm--a-105" value="" style="endArrow=none;dashed=1;html=1;fontSize=25;" edge="1" parent="1">
          <mxGeometry width="50" height="50" relative="1" as="geometry">
            <mxPoint x="180" y="130" as="sourcePoint"/>
            <mxPoint x="180" y="98" as="targetPoint"/>
          </mxGeometry>
        </mxCell>
        <mxCell id="1Ny6-iyPV7X26_jnm--a-106" value="" style="endArrow=none;dashed=1;html=1;fontSize=25;" edge="1" parent="1">
          <mxGeometry width="50" height="50" relative="1" as="geometry">
            <mxPoint x="235" y="130" as="sourcePoint"/>
            <mxPoint x="235" y="97.99999999999977" as="targetPoint"/>
          </mxGeometry>
        </mxCell>
        <mxCell id="1Ny6-iyPV7X26_jnm--a-109" value="" style="endArrow=none;dashed=1;html=1;fontSize=25;" edge="1" parent="1">
          <mxGeometry width="50" height="50" relative="1" as="geometry">
            <mxPoint x="240" y="130" as="sourcePoint"/>
            <mxPoint x="240" y="98" as="targetPoint"/>
          </mxGeometry>
        </mxCell>
        <mxCell id="1Ny6-iyPV7X26_jnm--a-110" value="" style="endArrow=none;dashed=1;html=1;fontSize=25;" edge="1" parent="1">
          <mxGeometry width="50" height="50" relative="1" as="geometry">
            <mxPoint x="295" y="130" as="sourcePoint"/>
            <mxPoint x="295" y="97.99999999999977" as="targetPoint"/>
          </mxGeometry>
        </mxCell>
        <mxCell id="1Ny6-iyPV7X26_jnm--a-111" value="" style="endArrow=classic;startArrow=classic;html=1;fontSize=25;" edge="1" parent="1">
          <mxGeometry width="50" height="50" relative="1" as="geometry">
            <mxPoint x="240" y="115" as="sourcePoint"/>
            <mxPoint x="295" y="115" as="targetPoint"/>
          </mxGeometry>
        </mxCell>
        <mxCell id="1Ny6-iyPV7X26_jnm--a-112" value="55" style="text;html=1;resizable=0;points=[];align=center;verticalAlign=middle;labelBackgroundColor=#ffffff;fontSize=18;" vertex="1" connectable="0" parent="1Ny6-iyPV7X26_jnm--a-111">
          <mxGeometry x="-0.1048" y="-3" relative="1" as="geometry">
            <mxPoint x="3" y="-2.5" as="offset"/>
          </mxGeometry>
        </mxCell>
        <mxCell id="1Ny6-iyPV7X26_jnm--a-113" value="" style="endArrow=none;dashed=1;html=1;fontSize=25;" edge="1" parent="1">
          <mxGeometry width="50" height="50" relative="1" as="geometry">
            <mxPoint x="300" y="130" as="sourcePoint"/>
            <mxPoint x="300" y="98" as="targetPoint"/>
          </mxGeometry>
        </mxCell>
        <mxCell id="1Ny6-iyPV7X26_jnm--a-114" value="" style="endArrow=none;dashed=1;html=1;fontSize=25;" edge="1" parent="1">
          <mxGeometry width="50" height="50" relative="1" as="geometry">
            <mxPoint x="355" y="130" as="sourcePoint"/>
            <mxPoint x="355" y="97.99999999999977" as="targetPoint"/>
          </mxGeometry>
        </mxCell>
        <mxCell id="1Ny6-iyPV7X26_jnm--a-115" value="" style="endArrow=classic;startArrow=classic;html=1;fontSize=25;" edge="1" parent="1">
          <mxGeometry width="50" height="50" relative="1" as="geometry">
            <mxPoint x="300" y="115" as="sourcePoint"/>
            <mxPoint x="355" y="115" as="targetPoint"/>
          </mxGeometry>
        </mxCell>
        <mxCell id="1Ny6-iyPV7X26_jnm--a-116" value="55" style="text;html=1;resizable=0;points=[];align=center;verticalAlign=middle;labelBackgroundColor=#ffffff;fontSize=18;" vertex="1" connectable="0" parent="1Ny6-iyPV7X26_jnm--a-115">
          <mxGeometry x="-0.1048" y="-3" relative="1" as="geometry">
            <mxPoint x="3" y="-2.5" as="offset"/>
          </mxGeometry>
        </mxCell>
        <mxCell id="1Ny6-iyPV7X26_jnm--a-117" value="" style="endArrow=none;dashed=1;html=1;fontSize=25;" edge="1" parent="1">
          <mxGeometry width="50" height="50" relative="1" as="geometry">
            <mxPoint x="360" y="130" as="sourcePoint"/>
            <mxPoint x="360" y="98" as="targetPoint"/>
          </mxGeometry>
        </mxCell>
        <mxCell id="1Ny6-iyPV7X26_jnm--a-118" value="" style="endArrow=none;dashed=1;html=1;fontSize=25;" edge="1" parent="1">
          <mxGeometry width="50" height="50" relative="1" as="geometry">
            <mxPoint x="415" y="129.5" as="sourcePoint"/>
            <mxPoint x="415" y="97.49999999999977" as="targetPoint"/>
          </mxGeometry>
        </mxCell>
        <mxCell id="1Ny6-iyPV7X26_jnm--a-119" value="" style="endArrow=classic;startArrow=classic;html=1;fontSize=25;" edge="1" parent="1">
          <mxGeometry width="50" height="50" relative="1" as="geometry">
            <mxPoint x="359.5" y="115" as="sourcePoint"/>
            <mxPoint x="414.5" y="115" as="targetPoint"/>
          </mxGeometry>
        </mxCell>
        <mxCell id="1Ny6-iyPV7X26_jnm--a-120" value="55" style="text;html=1;resizable=0;points=[];align=center;verticalAlign=middle;labelBackgroundColor=#ffffff;fontSize=18;" vertex="1" connectable="0" parent="1Ny6-iyPV7X26_jnm--a-119">
          <mxGeometry x="-0.1048" y="-3" relative="1" as="geometry">
            <mxPoint x="3" y="-2.5" as="offset"/>
          </mxGeometry>
        </mxCell>
        <mxCell id="1Ny6-iyPV7X26_jnm--a-121" value="" style="endArrow=none;dashed=1;html=1;fontSize=25;" edge="1" parent="1">
          <mxGeometry width="50" height="50" relative="1" as="geometry">
            <mxPoint x="419.5" y="130" as="sourcePoint"/>
            <mxPoint x="419.5" y="98" as="targetPoint"/>
          </mxGeometry>
        </mxCell>
        <mxCell id="1Ny6-iyPV7X26_jnm--a-122" value="" style="endArrow=none;dashed=1;html=1;fontSize=25;" edge="1" parent="1">
          <mxGeometry width="50" height="50" relative="1" as="geometry">
            <mxPoint x="474.5" y="130" as="sourcePoint"/>
            <mxPoint x="474.5" y="97.99999999999977" as="targetPoint"/>
          </mxGeometry>
        </mxCell>
        <mxCell id="1Ny6-iyPV7X26_jnm--a-123" value="" style="endArrow=classic;startArrow=classic;html=1;fontSize=25;" edge="1" parent="1">
          <mxGeometry width="50" height="50" relative="1" as="geometry">
            <mxPoint x="419.5" y="115" as="sourcePoint"/>
            <mxPoint x="474.5" y="115" as="targetPoint"/>
          </mxGeometry>
        </mxCell>
        <mxCell id="1Ny6-iyPV7X26_jnm--a-124" value="55" style="text;html=1;resizable=0;points=[];align=center;verticalAlign=middle;labelBackgroundColor=#ffffff;fontSize=18;" vertex="1" connectable="0" parent="1Ny6-iyPV7X26_jnm--a-123">
          <mxGeometry x="-0.1048" y="-3" relative="1" as="geometry">
            <mxPoint x="3" y="-2.5" as="offset"/>
          </mxGeometry>
        </mxCell>
        <mxCell id="1Ny6-iyPV7X26_jnm--a-125" value="" style="endArrow=none;dashed=1;html=1;fontSize=25;" edge="1" parent="1">
          <mxGeometry width="50" height="50" relative="1" as="geometry">
            <mxPoint x="478" y="130" as="sourcePoint"/>
            <mxPoint x="478" y="97.99999999999977" as="targetPoint"/>
          </mxGeometry>
        </mxCell>
        <mxCell id="1Ny6-iyPV7X26_jnm--a-126" value="" style="endArrow=classic;startArrow=classic;html=1;fontSize=25;" edge="1" parent="1">
          <mxGeometry width="50" height="50" relative="1" as="geometry">
            <mxPoint x="120" y="115" as="sourcePoint"/>
            <mxPoint x="175" y="115" as="targetPoint"/>
          </mxGeometry>
        </mxCell>
        <mxCell id="1Ny6-iyPV7X26_jnm--a-127" value="55" style="text;html=1;resizable=0;points=[];align=center;verticalAlign=middle;labelBackgroundColor=#ffffff;fontSize=18;" vertex="1" connectable="0" parent="1Ny6-iyPV7X26_jnm--a-126">
          <mxGeometry x="-0.1048" y="-3" relative="1" as="geometry">
            <mxPoint x="3" y="-2.5" as="offset"/>
          </mxGeometry>
        </mxCell>
        <mxCell id="1Ny6-iyPV7X26_jnm--a-128" value="" style="endArrow=none;dashed=1;html=1;fontSize=25;" edge="1" parent="1">
          <mxGeometry width="50" height="50" relative="1" as="geometry">
            <mxPoint x="175" y="130.5" as="sourcePoint"/>
            <mxPoint x="175" y="98.5" as="targetPoint"/>
          </mxGeometry>
        </mxCell>
        <mxCell id="1Ny6-iyPV7X26_jnm--a-140" value="" style="endArrow=classic;html=1;fontSize=18;" edge="1" parent="1">
          <mxGeometry width="50" height="50" relative="1" as="geometry">
            <mxPoint x="238" y="70" as="sourcePoint"/>
            <mxPoint x="238" y="94" as="targetPoint"/>
          </mxGeometry>
        </mxCell>
        <mxCell id="1Ny6-iyPV7X26_jnm--a-141" value="" style="endArrow=classic;html=1;fontSize=18;" edge="1" parent="1">
          <mxGeometry width="50" height="50" relative="1" as="geometry">
            <mxPoint x="297.5000000000001" y="71" as="sourcePoint"/>
            <mxPoint x="297.5000000000001" y="95" as="targetPoint"/>
          </mxGeometry>
        </mxCell>
        <mxCell id="1Ny6-iyPV7X26_jnm--a-142" value="" style="endArrow=classic;html=1;fontSize=18;" edge="1" parent="1">
          <mxGeometry width="50" height="50" relative="1" as="geometry">
            <mxPoint x="358.0000000000001" y="70.5" as="sourcePoint"/>
            <mxPoint x="358.0000000000001" y="94.5" as="targetPoint"/>
          </mxGeometry>
        </mxCell>
        <mxCell id="1Ny6-iyPV7X26_jnm--a-143" value="" style="endArrow=classic;html=1;fontSize=18;" edge="1" parent="1">
          <mxGeometry width="50" height="50" relative="1" as="geometry">
            <mxPoint x="417.5000000000001" y="70.5" as="sourcePoint"/>
            <mxPoint x="417.5000000000001" y="94.5" as="targetPoint"/>
          </mxGeometry>
        </mxCell>
        <mxCell id="1Ny6-iyPV7X26_jnm--a-144" value="" style="endArrow=classic;html=1;fontSize=18;" edge="1" parent="1">
          <mxGeometry width="50" height="50" relative="1" as="geometry">
            <mxPoint x="476.0000000000001" y="73.5" as="sourcePoint"/>
            <mxPoint x="476.0000000000001" y="97.5" as="targetPoint"/>
          </mxGeometry>
        </mxCell>
        <mxCell id="1Ny6-iyPV7X26_jnm--a-145" value="5" style="text;html=1;resizable=0;points=[];autosize=1;align=left;verticalAlign=top;spacingTop=-4;fontSize=18;" vertex="1" parent="1">
          <mxGeometry x="231.5" y="48" width="20" height="22" as="geometry"/>
        </mxCell>
        <mxCell id="1Ny6-iyPV7X26_jnm--a-135" value="5" style="text;html=1;resizable=0;points=[];autosize=1;align=left;verticalAlign=top;spacingTop=-4;fontSize=18;" vertex="1" parent="1">
          <mxGeometry x="170" y="50" width="20" height="22" as="geometry"/>
        </mxCell>
        <mxCell id="1Ny6-iyPV7X26_jnm--a-104" value="5" style="text;html=1;resizable=0;points=[];autosize=1;align=left;verticalAlign=top;spacingTop=-4;fontSize=18;" vertex="1" parent="1">
          <mxGeometry x="111.5" y="51.5" width="20" height="22" as="geometry"/>
        </mxCell>
        <mxCell id="1Ny6-iyPV7X26_jnm--a-148" value="5" style="text;html=1;resizable=0;points=[];autosize=1;align=left;verticalAlign=top;spacingTop=-4;fontSize=18;" vertex="1" parent="1">
          <mxGeometry x="289.5" y="48" width="20" height="22" as="geometry"/>
        </mxCell>
        <mxCell id="1Ny6-iyPV7X26_jnm--a-149" value="5" style="text;html=1;resizable=0;points=[];autosize=1;align=left;verticalAlign=top;spacingTop=-4;fontSize=18;" vertex="1" parent="1">
          <mxGeometry x="351" y="48" width="20" height="22" as="geometry"/>
        </mxCell>
        <mxCell id="1Ny6-iyPV7X26_jnm--a-150" value="5" style="text;html=1;resizable=0;points=[];autosize=1;align=left;verticalAlign=top;spacingTop=-4;fontSize=18;" vertex="1" parent="1">
          <mxGeometry x="410.5" y="48" width="20" height="22" as="geometry"/>
        </mxCell>
        <mxCell id="1Ny6-iyPV7X26_jnm--a-151" value="3" style="text;html=1;resizable=0;points=[];autosize=1;align=left;verticalAlign=top;spacingTop=-4;fontSize=18;fontColor=#FF0000;fontStyle=1" vertex="1" parent="1">
          <mxGeometry x="468" y="48" width="20" height="22" as="geometry"/>
        </mxCell>
        <mxCell id="1Ny6-iyPV7X26_jnm--a-153" value="" style="endArrow=none;dashed=1;html=1;fontSize=25;" edge="1" parent="1">
          <mxGeometry width="50" height="50" relative="1" as="geometry">
            <mxPoint x="1805.5" y="130" as="sourcePoint"/>
            <mxPoint x="1805.5" y="98" as="targetPoint"/>
          </mxGeometry>
        </mxCell>
        <mxCell id="1Ny6-iyPV7X26_jnm--a-154" value="" style="endArrow=none;dashed=1;html=1;fontSize=25;" edge="1" parent="1">
          <mxGeometry width="50" height="50" relative="1" as="geometry">
            <mxPoint x="1810" y="130" as="sourcePoint"/>
            <mxPoint x="1810" y="98" as="targetPoint"/>
          </mxGeometry>
        </mxCell>
        <mxCell id="1Ny6-iyPV7X26_jnm--a-155" value="" style="endArrow=classic;html=1;fontSize=18;" edge="1" parent="1">
          <mxGeometry width="50" height="50" relative="1" as="geometry">
            <mxPoint x="1808" y="73.50000000000045" as="sourcePoint"/>
            <mxPoint x="1808" y="97.5" as="targetPoint"/>
          </mxGeometry>
        </mxCell>
        <mxCell id="1Ny6-iyPV7X26_jnm--a-156" value="5" style="text;html=1;resizable=0;points=[];autosize=1;align=left;verticalAlign=top;spacingTop=-4;fontSize=18;fontColor=#FF0000;fontStyle=1" vertex="1" parent="1">
          <mxGeometry x="1800" y="48" width="20" height="22" as="geometry"/>
        </mxCell>
        <mxCell id="1Ny6-iyPV7X26_jnm--a-159" value="" style="endArrow=classic;startArrow=classic;html=1;fontSize=25;" edge="1" parent="1">
          <mxGeometry width="50" height="50" relative="1" as="geometry">
            <mxPoint x="180" y="115.5" as="sourcePoint"/>
            <mxPoint x="235" y="115.5" as="targetPoint"/>
          </mxGeometry>
        </mxCell>
        <mxCell id="1Ny6-iyPV7X26_jnm--a-160" value="55" style="text;html=1;resizable=0;points=[];align=center;verticalAlign=middle;labelBackgroundColor=#ffffff;fontSize=18;" vertex="1" connectable="0" parent="1Ny6-iyPV7X26_jnm--a-159">
          <mxGeometry x="-0.1048" y="-3" relative="1" as="geometry">
            <mxPoint x="3" y="-2.5" as="offset"/>
          </mxGeometry>
        </mxCell>
        <mxCell id="1Ny6-iyPV7X26_jnm--a-218" value="" style="endArrow=none;dashed=1;html=1;fontSize=25;" edge="1" parent="1">
          <mxGeometry width="50" height="50" relative="1" as="geometry">
            <mxPoint x="970" y="129.5" as="sourcePoint"/>
            <mxPoint x="970" y="97.5" as="targetPoint"/>
          </mxGeometry>
        </mxCell>
        <mxCell id="1Ny6-iyPV7X26_jnm--a-219" value="" style="endArrow=none;dashed=1;html=1;fontSize=25;" edge="1" parent="1">
          <mxGeometry width="50" height="50" relative="1" as="geometry">
            <mxPoint x="1025" y="129.5" as="sourcePoint"/>
            <mxPoint x="1025" y="97.49999999999983" as="targetPoint"/>
          </mxGeometry>
        </mxCell>
        <mxCell id="1Ny6-iyPV7X26_jnm--a-220" value="" style="endArrow=none;dashed=1;html=1;fontSize=25;" edge="1" parent="1">
          <mxGeometry width="50" height="50" relative="1" as="geometry">
            <mxPoint x="1030" y="129.5" as="sourcePoint"/>
            <mxPoint x="1030" y="97.5" as="targetPoint"/>
          </mxGeometry>
        </mxCell>
        <mxCell id="1Ny6-iyPV7X26_jnm--a-221" value="" style="endArrow=none;dashed=1;html=1;fontSize=25;" edge="1" parent="1">
          <mxGeometry width="50" height="50" relative="1" as="geometry">
            <mxPoint x="1085" y="129.5" as="sourcePoint"/>
            <mxPoint x="1085" y="97.49999999999983" as="targetPoint"/>
          </mxGeometry>
        </mxCell>
        <mxCell id="1Ny6-iyPV7X26_jnm--a-222" value="" style="endArrow=classic;startArrow=classic;html=1;fontSize=25;" edge="1" parent="1">
          <mxGeometry width="50" height="50" relative="1" as="geometry">
            <mxPoint x="1030" y="114.5" as="sourcePoint"/>
            <mxPoint x="1085" y="114.5" as="targetPoint"/>
          </mxGeometry>
        </mxCell>
        <mxCell id="1Ny6-iyPV7X26_jnm--a-223" value="55" style="text;html=1;resizable=0;points=[];align=center;verticalAlign=middle;labelBackgroundColor=#ffffff;fontSize=18;" vertex="1" connectable="0" parent="1Ny6-iyPV7X26_jnm--a-222">
          <mxGeometry x="-0.1048" y="-3" relative="1" as="geometry">
            <mxPoint x="3" y="-2.5" as="offset"/>
          </mxGeometry>
        </mxCell>
        <mxCell id="1Ny6-iyPV7X26_jnm--a-224" value="" style="endArrow=none;dashed=1;html=1;fontSize=25;" edge="1" parent="1">
          <mxGeometry width="50" height="50" relative="1" as="geometry">
            <mxPoint x="1090" y="129.5" as="sourcePoint"/>
            <mxPoint x="1090" y="97.5" as="targetPoint"/>
          </mxGeometry>
        </mxCell>
        <mxCell id="1Ny6-iyPV7X26_jnm--a-225" value="" style="endArrow=none;dashed=1;html=1;fontSize=25;" edge="1" parent="1">
          <mxGeometry width="50" height="50" relative="1" as="geometry">
            <mxPoint x="1145" y="129.5" as="sourcePoint"/>
            <mxPoint x="1145" y="97.49999999999983" as="targetPoint"/>
          </mxGeometry>
        </mxCell>
        <mxCell id="1Ny6-iyPV7X26_jnm--a-226" value="" style="endArrow=classic;startArrow=classic;html=1;fontSize=25;" edge="1" parent="1">
          <mxGeometry width="50" height="50" relative="1" as="geometry">
            <mxPoint x="1090" y="114.5" as="sourcePoint"/>
            <mxPoint x="1145" y="114.5" as="targetPoint"/>
          </mxGeometry>
        </mxCell>
        <mxCell id="1Ny6-iyPV7X26_jnm--a-227" value="55" style="text;html=1;resizable=0;points=[];align=center;verticalAlign=middle;labelBackgroundColor=#ffffff;fontSize=18;" vertex="1" connectable="0" parent="1Ny6-iyPV7X26_jnm--a-226">
          <mxGeometry x="-0.1048" y="-3" relative="1" as="geometry">
            <mxPoint x="3" y="-2.5" as="offset"/>
          </mxGeometry>
        </mxCell>
        <mxCell id="1Ny6-iyPV7X26_jnm--a-228" value="" style="endArrow=none;dashed=1;html=1;fontSize=25;" edge="1" parent="1">
          <mxGeometry width="50" height="50" relative="1" as="geometry">
            <mxPoint x="1150" y="129.5" as="sourcePoint"/>
            <mxPoint x="1150" y="97.5" as="targetPoint"/>
          </mxGeometry>
        </mxCell>
        <mxCell id="1Ny6-iyPV7X26_jnm--a-231" value="" style="endArrow=classic;startArrow=classic;html=1;fontSize=25;" edge="1" parent="1">
          <mxGeometry width="50" height="50" relative="1" as="geometry">
            <mxPoint x="970" y="115" as="sourcePoint"/>
            <mxPoint x="1025" y="115" as="targetPoint"/>
          </mxGeometry>
        </mxCell>
        <mxCell id="1Ny6-iyPV7X26_jnm--a-232" value="55" style="text;html=1;resizable=0;points=[];align=center;verticalAlign=middle;labelBackgroundColor=#ffffff;fontSize=18;" vertex="1" connectable="0" parent="1Ny6-iyPV7X26_jnm--a-231">
          <mxGeometry x="-0.1048" y="-3" relative="1" as="geometry">
            <mxPoint x="3" y="-2.5" as="offset"/>
          </mxGeometry>
        </mxCell>
        <mxCell id="1Ny6-iyPV7X26_jnm--a-243" value="55" style="text;html=1;resizable=0;points=[];align=center;verticalAlign=middle;labelBackgroundColor=#ffffff;fontSize=18;" vertex="1" connectable="0" parent="1Ny6-iyPV7X26_jnm--a-231">
          <mxGeometry x="-0.1048" y="-3" relative="1" as="geometry">
            <mxPoint x="183" y="-2" as="offset"/>
          </mxGeometry>
        </mxCell>
        <mxCell id="1Ny6-iyPV7X26_jnm--a-233" value="" style="endArrow=none;dashed=1;html=1;fontSize=25;" edge="1" parent="1">
          <mxGeometry width="50" height="50" relative="1" as="geometry">
            <mxPoint x="1205" y="130" as="sourcePoint"/>
            <mxPoint x="1205" y="97.99999999999983" as="targetPoint"/>
          </mxGeometry>
        </mxCell>
        <mxCell id="1Ny6-iyPV7X26_jnm--a-234" value="" style="endArrow=none;dashed=1;html=1;fontSize=25;" edge="1" parent="1">
          <mxGeometry width="50" height="50" relative="1" as="geometry">
            <mxPoint x="1210" y="130" as="sourcePoint"/>
            <mxPoint x="1210" y="98" as="targetPoint"/>
          </mxGeometry>
        </mxCell>
        <mxCell id="1Ny6-iyPV7X26_jnm--a-235" value="" style="endArrow=none;dashed=1;html=1;fontSize=25;" edge="1" parent="1">
          <mxGeometry width="50" height="50" relative="1" as="geometry">
            <mxPoint x="1265" y="130" as="sourcePoint"/>
            <mxPoint x="1265" y="97.99999999999983" as="targetPoint"/>
          </mxGeometry>
        </mxCell>
        <mxCell id="1Ny6-iyPV7X26_jnm--a-236" value="" style="endArrow=classic;startArrow=classic;html=1;fontSize=25;" edge="1" parent="1">
          <mxGeometry width="50" height="50" relative="1" as="geometry">
            <mxPoint x="1210" y="115" as="sourcePoint"/>
            <mxPoint x="1265" y="115" as="targetPoint"/>
          </mxGeometry>
        </mxCell>
        <mxCell id="1Ny6-iyPV7X26_jnm--a-237" value="55" style="text;html=1;resizable=0;points=[];align=center;verticalAlign=middle;labelBackgroundColor=#ffffff;fontSize=18;" vertex="1" connectable="0" parent="1Ny6-iyPV7X26_jnm--a-236">
          <mxGeometry x="-0.1048" y="-3" relative="1" as="geometry">
            <mxPoint x="3" y="-2.5" as="offset"/>
          </mxGeometry>
        </mxCell>
        <mxCell id="1Ny6-iyPV7X26_jnm--a-238" value="" style="endArrow=none;dashed=1;html=1;fontSize=25;" edge="1" parent="1">
          <mxGeometry width="50" height="50" relative="1" as="geometry">
            <mxPoint x="1270" y="130" as="sourcePoint"/>
            <mxPoint x="1270" y="98" as="targetPoint"/>
          </mxGeometry>
        </mxCell>
        <mxCell id="1Ny6-iyPV7X26_jnm--a-239" value="" style="endArrow=none;dashed=1;html=1;fontSize=25;" edge="1" parent="1">
          <mxGeometry width="50" height="50" relative="1" as="geometry">
            <mxPoint x="1325" y="130" as="sourcePoint"/>
            <mxPoint x="1325" y="97.99999999999983" as="targetPoint"/>
          </mxGeometry>
        </mxCell>
        <mxCell id="1Ny6-iyPV7X26_jnm--a-240" value="" style="endArrow=classic;startArrow=classic;html=1;fontSize=25;" edge="1" parent="1">
          <mxGeometry width="50" height="50" relative="1" as="geometry">
            <mxPoint x="1270" y="115" as="sourcePoint"/>
            <mxPoint x="1325" y="115" as="targetPoint"/>
          </mxGeometry>
        </mxCell>
        <mxCell id="1Ny6-iyPV7X26_jnm--a-241" value="55" style="text;html=1;resizable=0;points=[];align=center;verticalAlign=middle;labelBackgroundColor=#ffffff;fontSize=18;" vertex="1" connectable="0" parent="1Ny6-iyPV7X26_jnm--a-240">
          <mxGeometry x="-0.1048" y="-3" relative="1" as="geometry">
            <mxPoint x="3" y="-2.5" as="offset"/>
          </mxGeometry>
        </mxCell>
        <mxCell id="1Ny6-iyPV7X26_jnm--a-242" value="" style="endArrow=none;dashed=1;html=1;fontSize=25;" edge="1" parent="1">
          <mxGeometry width="50" height="50" relative="1" as="geometry">
            <mxPoint x="1330" y="130" as="sourcePoint"/>
            <mxPoint x="1330" y="98" as="targetPoint"/>
          </mxGeometry>
        </mxCell>
        <mxCell id="1Ny6-iyPV7X26_jnm--a-244" value="" style="endArrow=none;dashed=1;html=1;fontSize=25;" edge="1" parent="1">
          <mxGeometry width="50" height="50" relative="1" as="geometry">
            <mxPoint x="1385.5" y="130" as="sourcePoint"/>
            <mxPoint x="1385.5" y="97.99999999999983" as="targetPoint"/>
          </mxGeometry>
        </mxCell>
        <mxCell id="1Ny6-iyPV7X26_jnm--a-245" value="" style="endArrow=none;dashed=1;html=1;fontSize=25;" edge="1" parent="1">
          <mxGeometry width="50" height="50" relative="1" as="geometry">
            <mxPoint x="1390.5" y="130" as="sourcePoint"/>
            <mxPoint x="1390.5" y="98" as="targetPoint"/>
          </mxGeometry>
        </mxCell>
        <mxCell id="1Ny6-iyPV7X26_jnm--a-246" value="" style="endArrow=none;dashed=1;html=1;fontSize=25;" edge="1" parent="1">
          <mxGeometry width="50" height="50" relative="1" as="geometry">
            <mxPoint x="1445.5" y="130" as="sourcePoint"/>
            <mxPoint x="1445.5" y="97.99999999999983" as="targetPoint"/>
          </mxGeometry>
        </mxCell>
        <mxCell id="1Ny6-iyPV7X26_jnm--a-247" value="" style="endArrow=classic;startArrow=classic;html=1;fontSize=25;" edge="1" parent="1">
          <mxGeometry width="50" height="50" relative="1" as="geometry">
            <mxPoint x="1390.5" y="115" as="sourcePoint"/>
            <mxPoint x="1445.5" y="115" as="targetPoint"/>
          </mxGeometry>
        </mxCell>
        <mxCell id="1Ny6-iyPV7X26_jnm--a-248" value="55" style="text;html=1;resizable=0;points=[];align=center;verticalAlign=middle;labelBackgroundColor=#ffffff;fontSize=18;" vertex="1" connectable="0" parent="1Ny6-iyPV7X26_jnm--a-247">
          <mxGeometry x="-0.1048" y="-3" relative="1" as="geometry">
            <mxPoint x="3" y="-2.5" as="offset"/>
          </mxGeometry>
        </mxCell>
        <mxCell id="1Ny6-iyPV7X26_jnm--a-249" value="" style="endArrow=none;dashed=1;html=1;fontSize=25;" edge="1" parent="1">
          <mxGeometry width="50" height="50" relative="1" as="geometry">
            <mxPoint x="1450.5" y="130" as="sourcePoint"/>
            <mxPoint x="1450.5" y="98" as="targetPoint"/>
          </mxGeometry>
        </mxCell>
        <mxCell id="1Ny6-iyPV7X26_jnm--a-250" value="" style="endArrow=none;dashed=1;html=1;fontSize=25;" edge="1" parent="1">
          <mxGeometry width="50" height="50" relative="1" as="geometry">
            <mxPoint x="1505.5" y="130" as="sourcePoint"/>
            <mxPoint x="1505.5" y="97.99999999999983" as="targetPoint"/>
          </mxGeometry>
        </mxCell>
        <mxCell id="1Ny6-iyPV7X26_jnm--a-251" value="" style="endArrow=classic;startArrow=classic;html=1;fontSize=25;" edge="1" parent="1">
          <mxGeometry width="50" height="50" relative="1" as="geometry">
            <mxPoint x="1450.5" y="115" as="sourcePoint"/>
            <mxPoint x="1505.5" y="115" as="targetPoint"/>
          </mxGeometry>
        </mxCell>
        <mxCell id="1Ny6-iyPV7X26_jnm--a-252" value="55" style="text;html=1;resizable=0;points=[];align=center;verticalAlign=middle;labelBackgroundColor=#ffffff;fontSize=18;" vertex="1" connectable="0" parent="1Ny6-iyPV7X26_jnm--a-251">
          <mxGeometry x="-0.1048" y="-3" relative="1" as="geometry">
            <mxPoint x="3" y="-2.5" as="offset"/>
          </mxGeometry>
        </mxCell>
        <mxCell id="1Ny6-iyPV7X26_jnm--a-253" value="" style="endArrow=none;dashed=1;html=1;fontSize=25;" edge="1" parent="1">
          <mxGeometry width="50" height="50" relative="1" as="geometry">
            <mxPoint x="1510.5" y="130" as="sourcePoint"/>
            <mxPoint x="1510.5" y="98" as="targetPoint"/>
          </mxGeometry>
        </mxCell>
        <mxCell id="1Ny6-iyPV7X26_jnm--a-255" value="" style="endArrow=none;dashed=1;html=1;fontSize=25;" edge="1" parent="1">
          <mxGeometry width="50" height="50" relative="1" as="geometry">
            <mxPoint x="1565.5" y="130" as="sourcePoint"/>
            <mxPoint x="1565.5" y="97.99999999999983" as="targetPoint"/>
          </mxGeometry>
        </mxCell>
        <mxCell id="1Ny6-iyPV7X26_jnm--a-256" value="" style="endArrow=none;dashed=1;html=1;fontSize=25;" edge="1" parent="1">
          <mxGeometry width="50" height="50" relative="1" as="geometry">
            <mxPoint x="1570.5" y="130" as="sourcePoint"/>
            <mxPoint x="1570.5" y="98" as="targetPoint"/>
          </mxGeometry>
        </mxCell>
        <mxCell id="1Ny6-iyPV7X26_jnm--a-257" value="" style="endArrow=none;dashed=1;html=1;fontSize=25;" edge="1" parent="1">
          <mxGeometry width="50" height="50" relative="1" as="geometry">
            <mxPoint x="1625.5" y="130" as="sourcePoint"/>
            <mxPoint x="1625.5" y="97.99999999999983" as="targetPoint"/>
          </mxGeometry>
        </mxCell>
        <mxCell id="1Ny6-iyPV7X26_jnm--a-258" value="" style="endArrow=classic;startArrow=classic;html=1;fontSize=25;" edge="1" parent="1">
          <mxGeometry width="50" height="50" relative="1" as="geometry">
            <mxPoint x="1570.5" y="115" as="sourcePoint"/>
            <mxPoint x="1625.5" y="115" as="targetPoint"/>
          </mxGeometry>
        </mxCell>
        <mxCell id="1Ny6-iyPV7X26_jnm--a-259" value="55" style="text;html=1;resizable=0;points=[];align=center;verticalAlign=middle;labelBackgroundColor=#ffffff;fontSize=18;" vertex="1" connectable="0" parent="1Ny6-iyPV7X26_jnm--a-258">
          <mxGeometry x="-0.1048" y="-3" relative="1" as="geometry">
            <mxPoint x="3" y="-2.5" as="offset"/>
          </mxGeometry>
        </mxCell>
        <mxCell id="1Ny6-iyPV7X26_jnm--a-260" value="" style="endArrow=none;dashed=1;html=1;fontSize=25;" edge="1" parent="1">
          <mxGeometry width="50" height="50" relative="1" as="geometry">
            <mxPoint x="1630.5" y="130" as="sourcePoint"/>
            <mxPoint x="1630.5" y="98" as="targetPoint"/>
          </mxGeometry>
        </mxCell>
        <mxCell id="1Ny6-iyPV7X26_jnm--a-261" value="" style="endArrow=none;dashed=1;html=1;fontSize=25;" edge="1" parent="1">
          <mxGeometry width="50" height="50" relative="1" as="geometry">
            <mxPoint x="1685.5" y="130" as="sourcePoint"/>
            <mxPoint x="1685.5" y="97.99999999999983" as="targetPoint"/>
          </mxGeometry>
        </mxCell>
        <mxCell id="1Ny6-iyPV7X26_jnm--a-262" value="" style="endArrow=classic;startArrow=classic;html=1;fontSize=25;" edge="1" parent="1">
          <mxGeometry width="50" height="50" relative="1" as="geometry">
            <mxPoint x="1630.5" y="115" as="sourcePoint"/>
            <mxPoint x="1685.5" y="115" as="targetPoint"/>
          </mxGeometry>
        </mxCell>
        <mxCell id="1Ny6-iyPV7X26_jnm--a-263" value="55" style="text;html=1;resizable=0;points=[];align=center;verticalAlign=middle;labelBackgroundColor=#ffffff;fontSize=18;" vertex="1" connectable="0" parent="1Ny6-iyPV7X26_jnm--a-262">
          <mxGeometry x="-0.1048" y="-3" relative="1" as="geometry">
            <mxPoint x="3" y="-2.5" as="offset"/>
          </mxGeometry>
        </mxCell>
        <mxCell id="1Ny6-iyPV7X26_jnm--a-264" value="" style="endArrow=none;dashed=1;html=1;fontSize=25;" edge="1" parent="1">
          <mxGeometry width="50" height="50" relative="1" as="geometry">
            <mxPoint x="1690.5" y="130" as="sourcePoint"/>
            <mxPoint x="1690.5" y="98" as="targetPoint"/>
          </mxGeometry>
        </mxCell>
        <mxCell id="1Ny6-iyPV7X26_jnm--a-266" value="" style="endArrow=classic;startArrow=classic;html=1;fontSize=25;" edge="1" parent="1">
          <mxGeometry width="50" height="50" relative="1" as="geometry">
            <mxPoint x="1330.5" y="115.5" as="sourcePoint"/>
            <mxPoint x="1385.5" y="115.5" as="targetPoint"/>
          </mxGeometry>
        </mxCell>
        <mxCell id="1Ny6-iyPV7X26_jnm--a-267" value="55" style="text;html=1;resizable=0;points=[];align=center;verticalAlign=middle;labelBackgroundColor=#ffffff;fontSize=18;" vertex="1" connectable="0" parent="1Ny6-iyPV7X26_jnm--a-266">
          <mxGeometry x="-0.1048" y="-3" relative="1" as="geometry">
            <mxPoint x="3" y="-2.5" as="offset"/>
          </mxGeometry>
        </mxCell>
        <mxCell id="1Ny6-iyPV7X26_jnm--a-268" value="" style="endArrow=classic;startArrow=classic;html=1;fontSize=25;" edge="1" parent="1">
          <mxGeometry width="50" height="50" relative="1" as="geometry">
            <mxPoint x="1510.5" y="115.5" as="sourcePoint"/>
            <mxPoint x="1565.5" y="115.5" as="targetPoint"/>
          </mxGeometry>
        </mxCell>
        <mxCell id="1Ny6-iyPV7X26_jnm--a-269" value="55" style="text;html=1;resizable=0;points=[];align=center;verticalAlign=middle;labelBackgroundColor=#ffffff;fontSize=18;" vertex="1" connectable="0" parent="1Ny6-iyPV7X26_jnm--a-268">
          <mxGeometry x="-0.1048" y="-3" relative="1" as="geometry">
            <mxPoint x="3" y="-2.5" as="offset"/>
          </mxGeometry>
        </mxCell>
        <mxCell id="1Ny6-iyPV7X26_jnm--a-270" value="" style="endArrow=none;dashed=1;html=1;fontSize=25;" edge="1" parent="1">
          <mxGeometry width="50" height="50" relative="1" as="geometry">
            <mxPoint x="1745.5" y="130" as="sourcePoint"/>
            <mxPoint x="1745.5" y="97.99999999999983" as="targetPoint"/>
          </mxGeometry>
        </mxCell>
        <mxCell id="1Ny6-iyPV7X26_jnm--a-271" value="" style="endArrow=none;dashed=1;html=1;fontSize=25;" edge="1" parent="1">
          <mxGeometry width="50" height="50" relative="1" as="geometry">
            <mxPoint x="1750.5" y="130" as="sourcePoint"/>
            <mxPoint x="1750.5" y="98" as="targetPoint"/>
          </mxGeometry>
        </mxCell>
        <mxCell id="1Ny6-iyPV7X26_jnm--a-272" value="" style="endArrow=classic;startArrow=classic;html=1;fontSize=25;" edge="1" parent="1">
          <mxGeometry width="50" height="50" relative="1" as="geometry">
            <mxPoint x="1690.5" y="116" as="sourcePoint"/>
            <mxPoint x="1745.5" y="116" as="targetPoint"/>
          </mxGeometry>
        </mxCell>
        <mxCell id="1Ny6-iyPV7X26_jnm--a-273" value="55" style="text;html=1;resizable=0;points=[];align=center;verticalAlign=middle;labelBackgroundColor=#ffffff;fontSize=18;" vertex="1" connectable="0" parent="1Ny6-iyPV7X26_jnm--a-272">
          <mxGeometry x="-0.1048" y="-3" relative="1" as="geometry">
            <mxPoint x="3" y="-2.5" as="offset"/>
          </mxGeometry>
        </mxCell>
        <mxCell id="1Ny6-iyPV7X26_jnm--a-274" value="" style="endArrow=classic;startArrow=classic;html=1;fontSize=25;" edge="1" parent="1">
          <mxGeometry width="50" height="50" relative="1" as="geometry">
            <mxPoint x="1750.5" y="115.5" as="sourcePoint"/>
            <mxPoint x="1805.5" y="115.5" as="targetPoint"/>
          </mxGeometry>
        </mxCell>
        <mxCell id="1Ny6-iyPV7X26_jnm--a-275" value="55" style="text;html=1;resizable=0;points=[];align=center;verticalAlign=middle;labelBackgroundColor=#ffffff;fontSize=18;" vertex="1" connectable="0" parent="1Ny6-iyPV7X26_jnm--a-274">
          <mxGeometry x="-0.1048" y="-3" relative="1" as="geometry">
            <mxPoint x="3" y="-2.5" as="offset"/>
          </mxGeometry>
        </mxCell>
        <mxCell id="1Ny6-iyPV7X26_jnm--a-276" value="" style="endArrow=classic;html=1;fontSize=18;" edge="1" parent="1">
          <mxGeometry width="50" height="50" relative="1" as="geometry">
            <mxPoint x="1028" y="71.5" as="sourcePoint"/>
            <mxPoint x="1028" y="95.5" as="targetPoint"/>
          </mxGeometry>
        </mxCell>
        <mxCell id="1Ny6-iyPV7X26_jnm--a-277" value="" style="endArrow=classic;html=1;fontSize=18;" edge="1" parent="1">
          <mxGeometry width="50" height="50" relative="1" as="geometry">
            <mxPoint x="1087.5" y="72.5" as="sourcePoint"/>
            <mxPoint x="1087.5" y="96.5" as="targetPoint"/>
          </mxGeometry>
        </mxCell>
        <mxCell id="1Ny6-iyPV7X26_jnm--a-278" value="" style="endArrow=classic;html=1;fontSize=18;" edge="1" parent="1">
          <mxGeometry width="50" height="50" relative="1" as="geometry">
            <mxPoint x="1148" y="72" as="sourcePoint"/>
            <mxPoint x="1148" y="96" as="targetPoint"/>
          </mxGeometry>
        </mxCell>
        <mxCell id="1Ny6-iyPV7X26_jnm--a-279" value="" style="endArrow=classic;html=1;fontSize=18;" edge="1" parent="1">
          <mxGeometry width="50" height="50" relative="1" as="geometry">
            <mxPoint x="1207.5" y="72" as="sourcePoint"/>
            <mxPoint x="1207.5" y="96" as="targetPoint"/>
          </mxGeometry>
        </mxCell>
        <mxCell id="1Ny6-iyPV7X26_jnm--a-280" value="5" style="text;html=1;resizable=0;points=[];autosize=1;align=left;verticalAlign=top;spacingTop=-4;fontSize=18;" vertex="1" parent="1">
          <mxGeometry x="1021.5" y="49.5" width="20" height="22" as="geometry"/>
        </mxCell>
        <mxCell id="1Ny6-iyPV7X26_jnm--a-281" value="5" style="text;html=1;resizable=0;points=[];autosize=1;align=left;verticalAlign=top;spacingTop=-4;fontSize=18;" vertex="1" parent="1">
          <mxGeometry x="1079.5" y="49.5" width="20" height="22" as="geometry"/>
        </mxCell>
        <mxCell id="1Ny6-iyPV7X26_jnm--a-282" value="5" style="text;html=1;resizable=0;points=[];autosize=1;align=left;verticalAlign=top;spacingTop=-4;fontSize=18;" vertex="1" parent="1">
          <mxGeometry x="1141" y="49.5" width="20" height="22" as="geometry"/>
        </mxCell>
        <mxCell id="1Ny6-iyPV7X26_jnm--a-283" value="5" style="text;html=1;resizable=0;points=[];autosize=1;align=left;verticalAlign=top;spacingTop=-4;fontSize=18;" vertex="1" parent="1">
          <mxGeometry x="1200.5" y="49.5" width="20" height="22" as="geometry"/>
        </mxCell>
        <mxCell id="1Ny6-iyPV7X26_jnm--a-284" value="" style="endArrow=classic;html=1;fontSize=18;" edge="1" parent="1">
          <mxGeometry width="50" height="50" relative="1" as="geometry">
            <mxPoint x="1268" y="73.5" as="sourcePoint"/>
            <mxPoint x="1268" y="97.5" as="targetPoint"/>
          </mxGeometry>
        </mxCell>
        <mxCell id="1Ny6-iyPV7X26_jnm--a-285" value="" style="endArrow=classic;html=1;fontSize=18;" edge="1" parent="1">
          <mxGeometry width="50" height="50" relative="1" as="geometry">
            <mxPoint x="1327.5" y="74.5" as="sourcePoint"/>
            <mxPoint x="1327.5" y="98.5" as="targetPoint"/>
          </mxGeometry>
        </mxCell>
        <mxCell id="1Ny6-iyPV7X26_jnm--a-286" value="" style="endArrow=classic;html=1;fontSize=18;" edge="1" parent="1">
          <mxGeometry width="50" height="50" relative="1" as="geometry">
            <mxPoint x="1388" y="74" as="sourcePoint"/>
            <mxPoint x="1388" y="97.99999999999989" as="targetPoint"/>
          </mxGeometry>
        </mxCell>
        <mxCell id="1Ny6-iyPV7X26_jnm--a-287" value="" style="endArrow=classic;html=1;fontSize=18;" edge="1" parent="1">
          <mxGeometry width="50" height="50" relative="1" as="geometry">
            <mxPoint x="1447.5" y="74" as="sourcePoint"/>
            <mxPoint x="1447.5" y="97.99999999999989" as="targetPoint"/>
          </mxGeometry>
        </mxCell>
        <mxCell id="1Ny6-iyPV7X26_jnm--a-288" value="5" style="text;html=1;resizable=0;points=[];autosize=1;align=left;verticalAlign=top;spacingTop=-4;fontSize=18;" vertex="1" parent="1">
          <mxGeometry x="1261.5" y="51.5" width="20" height="22" as="geometry"/>
        </mxCell>
        <mxCell id="1Ny6-iyPV7X26_jnm--a-289" value="5" style="text;html=1;resizable=0;points=[];autosize=1;align=left;verticalAlign=top;spacingTop=-4;fontSize=18;" vertex="1" parent="1">
          <mxGeometry x="1319.5" y="51.5" width="20" height="22" as="geometry"/>
        </mxCell>
        <mxCell id="1Ny6-iyPV7X26_jnm--a-290" value="5" style="text;html=1;resizable=0;points=[];autosize=1;align=left;verticalAlign=top;spacingTop=-4;fontSize=18;" vertex="1" parent="1">
          <mxGeometry x="1381" y="51.5" width="20" height="22" as="geometry"/>
        </mxCell>
        <mxCell id="1Ny6-iyPV7X26_jnm--a-291" value="5" style="text;html=1;resizable=0;points=[];autosize=1;align=left;verticalAlign=top;spacingTop=-4;fontSize=18;" vertex="1" parent="1">
          <mxGeometry x="1440.5" y="51.5" width="20" height="22" as="geometry"/>
        </mxCell>
        <mxCell id="1Ny6-iyPV7X26_jnm--a-300" value="" style="endArrow=classic;html=1;fontSize=18;" edge="1" parent="1">
          <mxGeometry width="50" height="50" relative="1" as="geometry">
            <mxPoint x="1508.5" y="72" as="sourcePoint"/>
            <mxPoint x="1508.5" y="96" as="targetPoint"/>
          </mxGeometry>
        </mxCell>
        <mxCell id="1Ny6-iyPV7X26_jnm--a-301" value="" style="endArrow=classic;html=1;fontSize=18;" edge="1" parent="1">
          <mxGeometry width="50" height="50" relative="1" as="geometry">
            <mxPoint x="1568" y="73" as="sourcePoint"/>
            <mxPoint x="1568" y="96.99999999999989" as="targetPoint"/>
          </mxGeometry>
        </mxCell>
        <mxCell id="1Ny6-iyPV7X26_jnm--a-302" value="" style="endArrow=classic;html=1;fontSize=18;" edge="1" parent="1">
          <mxGeometry width="50" height="50" relative="1" as="geometry">
            <mxPoint x="1628.5" y="72.5" as="sourcePoint"/>
            <mxPoint x="1628.5" y="96.49999999999989" as="targetPoint"/>
          </mxGeometry>
        </mxCell>
        <mxCell id="1Ny6-iyPV7X26_jnm--a-303" value="" style="endArrow=classic;html=1;fontSize=18;" edge="1" parent="1">
          <mxGeometry width="50" height="50" relative="1" as="geometry">
            <mxPoint x="1688" y="72.5" as="sourcePoint"/>
            <mxPoint x="1688" y="96.49999999999989" as="targetPoint"/>
          </mxGeometry>
        </mxCell>
        <mxCell id="1Ny6-iyPV7X26_jnm--a-304" value="5" style="text;html=1;resizable=0;points=[];autosize=1;align=left;verticalAlign=top;spacingTop=-4;fontSize=18;" vertex="1" parent="1">
          <mxGeometry x="1502" y="50" width="20" height="22" as="geometry"/>
        </mxCell>
        <mxCell id="1Ny6-iyPV7X26_jnm--a-305" value="5" style="text;html=1;resizable=0;points=[];autosize=1;align=left;verticalAlign=top;spacingTop=-4;fontSize=18;" vertex="1" parent="1">
          <mxGeometry x="1560" y="50" width="20" height="22" as="geometry"/>
        </mxCell>
        <mxCell id="1Ny6-iyPV7X26_jnm--a-306" value="5" style="text;html=1;resizable=0;points=[];autosize=1;align=left;verticalAlign=top;spacingTop=-4;fontSize=18;" vertex="1" parent="1">
          <mxGeometry x="1621.5" y="50" width="20" height="22" as="geometry"/>
        </mxCell>
        <mxCell id="1Ny6-iyPV7X26_jnm--a-307" value="5" style="text;html=1;resizable=0;points=[];autosize=1;align=left;verticalAlign=top;spacingTop=-4;fontSize=18;" vertex="1" parent="1">
          <mxGeometry x="1681" y="50" width="20" height="22" as="geometry"/>
        </mxCell>
        <mxCell id="1Ny6-iyPV7X26_jnm--a-308" value="" style="endArrow=classic;html=1;fontSize=18;" edge="1" parent="1">
          <mxGeometry width="50" height="50" relative="1" as="geometry">
            <mxPoint x="1748.5" y="73" as="sourcePoint"/>
            <mxPoint x="1748.5" y="96.99999999999989" as="targetPoint"/>
          </mxGeometry>
        </mxCell>
        <mxCell id="1Ny6-iyPV7X26_jnm--a-309" value="5" style="text;html=1;resizable=0;points=[];autosize=1;align=left;verticalAlign=top;spacingTop=-4;fontSize=18;" vertex="1" parent="1">
          <mxGeometry x="1741.5" y="50.5" width="20" height="22" as="geometry"/>
        </mxCell>
        <mxCell id="1Ny6-iyPV7X26_jnm--a-404" value="" style="endArrow=none;dashed=1;html=1;fontSize=25;" edge="1" parent="1">
          <mxGeometry width="50" height="50" relative="1" as="geometry">
            <mxPoint x="704" y="1430" as="sourcePoint"/>
            <mxPoint x="704" y="1397.9999999999998" as="targetPoint"/>
          </mxGeometry>
        </mxCell>
        <mxCell id="1Ny6-iyPV7X26_jnm--a-405" value="" style="endArrow=none;dashed=1;html=1;fontSize=25;" edge="1" parent="1">
          <mxGeometry width="50" height="50" relative="1" as="geometry">
            <mxPoint x="709.9999999999998" y="1430" as="sourcePoint"/>
            <mxPoint x="709.9999999999998" y="1397.9999999999998" as="targetPoint"/>
          </mxGeometry>
        </mxCell>
        <mxCell id="1Ny6-iyPV7X26_jnm--a-406" value="" style="endArrow=classic;startArrow=classic;html=1;fontSize=25;" edge="1" parent="1">
          <mxGeometry width="50" height="50" relative="1" as="geometry">
            <mxPoint x="648.0000000000002" y="1415.0000000000002" as="sourcePoint"/>
            <mxPoint x="703.0000000000002" y="1415.0000000000002" as="targetPoint"/>
          </mxGeometry>
        </mxCell>
        <mxCell id="1Ny6-iyPV7X26_jnm--a-407" value="56" style="text;html=1;resizable=0;points=[];align=center;verticalAlign=middle;labelBackgroundColor=#ffffff;fontSize=18;" vertex="1" connectable="0" parent="1Ny6-iyPV7X26_jnm--a-406">
          <mxGeometry x="-0.1048" y="-3" relative="1" as="geometry">
            <mxPoint x="3" y="-2.5" as="offset"/>
          </mxGeometry>
        </mxCell>
        <mxCell id="1Ny6-iyPV7X26_jnm--a-408" value="" style="endArrow=classic;html=1;fontSize=12;" edge="1" parent="1">
          <mxGeometry width="50" height="50" relative="1" as="geometry">
            <mxPoint x="707" y="1374.9999999999995" as="sourcePoint"/>
            <mxPoint x="707" y="1397" as="targetPoint"/>
            <Array as="points">
              <mxPoint x="707" y="1375"/>
            </Array>
          </mxGeometry>
        </mxCell>
        <mxCell id="1Ny6-iyPV7X26_jnm--a-409" value="6" style="text;html=1;resizable=0;points=[];autosize=1;align=left;verticalAlign=top;spacingTop=-4;fontSize=18;" vertex="1" parent="1">
          <mxGeometry x="701" y="1355" width="16" height="14" as="geometry"/>
        </mxCell>
        <mxCell id="1Ny6-iyPV7X26_jnm--a-410" value="" style="endArrow=none;dashed=1;html=1;fontSize=25;" edge="1" parent="1">
          <mxGeometry width="50" height="50" relative="1" as="geometry">
            <mxPoint x="586" y="1431" as="sourcePoint"/>
            <mxPoint x="586" y="1399" as="targetPoint"/>
          </mxGeometry>
        </mxCell>
        <mxCell id="1Ny6-iyPV7X26_jnm--a-411" value="" style="endArrow=none;dashed=1;html=1;fontSize=25;" edge="1" parent="1">
          <mxGeometry width="50" height="50" relative="1" as="geometry">
            <mxPoint x="642" y="1431" as="sourcePoint"/>
            <mxPoint x="642" y="1398.9999999999998" as="targetPoint"/>
          </mxGeometry>
        </mxCell>
        <mxCell id="1Ny6-iyPV7X26_jnm--a-412" value="" style="endArrow=none;dashed=1;html=1;fontSize=25;" edge="1" parent="1">
          <mxGeometry width="50" height="50" relative="1" as="geometry">
            <mxPoint x="648.0000000000002" y="1431" as="sourcePoint"/>
            <mxPoint x="648.0000000000002" y="1398.9999999999998" as="targetPoint"/>
          </mxGeometry>
        </mxCell>
        <mxCell id="1Ny6-iyPV7X26_jnm--a-413" value="" style="endArrow=classic;startArrow=classic;html=1;fontSize=25;" edge="1" parent="1">
          <mxGeometry width="50" height="50" relative="1" as="geometry">
            <mxPoint x="586" y="1416.0000000000002" as="sourcePoint"/>
            <mxPoint x="641" y="1416.0000000000002" as="targetPoint"/>
          </mxGeometry>
        </mxCell>
        <mxCell id="1Ny6-iyPV7X26_jnm--a-414" value="56" style="text;html=1;resizable=0;points=[];align=center;verticalAlign=middle;labelBackgroundColor=#ffffff;fontSize=18;" vertex="1" connectable="0" parent="1Ny6-iyPV7X26_jnm--a-413">
          <mxGeometry x="-0.1048" y="-3" relative="1" as="geometry">
            <mxPoint x="3" y="-2.5" as="offset"/>
          </mxGeometry>
        </mxCell>
        <mxCell id="1Ny6-iyPV7X26_jnm--a-415" value="" style="endArrow=classic;html=1;fontSize=12;" edge="1" parent="1">
          <mxGeometry width="50" height="50" relative="1" as="geometry">
            <mxPoint x="644.9999999999998" y="1375.9999999999998" as="sourcePoint"/>
            <mxPoint x="644.9999999999998" y="1397.9999999999998" as="targetPoint"/>
            <Array as="points">
              <mxPoint x="645" y="1376"/>
            </Array>
          </mxGeometry>
        </mxCell>
        <mxCell id="1Ny6-iyPV7X26_jnm--a-416" value="6" style="text;html=1;resizable=0;points=[];autosize=1;align=left;verticalAlign=top;spacingTop=-4;fontSize=18;" vertex="1" parent="1">
          <mxGeometry x="638.5" y="1355" width="16" height="14" as="geometry"/>
        </mxCell>
        <mxCell id="1Ny6-iyPV7X26_jnm--a-417" value="" style="endArrow=none;dashed=1;html=1;fontSize=25;" edge="1" parent="1">
          <mxGeometry width="50" height="50" relative="1" as="geometry">
            <mxPoint x="524" y="1431.0000000000005" as="sourcePoint"/>
            <mxPoint x="524" y="1399" as="targetPoint"/>
          </mxGeometry>
        </mxCell>
        <mxCell id="1Ny6-iyPV7X26_jnm--a-418" value="" style="endArrow=none;dashed=1;html=1;fontSize=25;" edge="1" parent="1">
          <mxGeometry width="50" height="50" relative="1" as="geometry">
            <mxPoint x="579.9999999999998" y="1431.0000000000005" as="sourcePoint"/>
            <mxPoint x="579.9999999999998" y="1398.9999999999995" as="targetPoint"/>
          </mxGeometry>
        </mxCell>
        <mxCell id="1Ny6-iyPV7X26_jnm--a-419" value="" style="endArrow=classic;startArrow=classic;html=1;fontSize=25;" edge="1" parent="1">
          <mxGeometry width="50" height="50" relative="1" as="geometry">
            <mxPoint x="524" y="1416.0000000000005" as="sourcePoint"/>
            <mxPoint x="579" y="1416.0000000000005" as="targetPoint"/>
          </mxGeometry>
        </mxCell>
        <mxCell id="1Ny6-iyPV7X26_jnm--a-420" value="56" style="text;html=1;resizable=0;points=[];align=center;verticalAlign=middle;labelBackgroundColor=#ffffff;fontSize=18;" vertex="1" connectable="0" parent="1Ny6-iyPV7X26_jnm--a-419">
          <mxGeometry x="-0.1048" y="-3" relative="1" as="geometry">
            <mxPoint x="3" y="-2.5" as="offset"/>
          </mxGeometry>
        </mxCell>
        <mxCell id="1Ny6-iyPV7X26_jnm--a-421" value="" style="endArrow=none;dashed=1;html=1;fontSize=25;" edge="1" parent="1">
          <mxGeometry width="50" height="50" relative="1" as="geometry">
            <mxPoint x="462" y="1431.0000000000005" as="sourcePoint"/>
            <mxPoint x="462" y="1399" as="targetPoint"/>
          </mxGeometry>
        </mxCell>
        <mxCell id="1Ny6-iyPV7X26_jnm--a-422" value="" style="endArrow=none;dashed=1;html=1;fontSize=25;" edge="1" parent="1">
          <mxGeometry width="50" height="50" relative="1" as="geometry">
            <mxPoint x="518.0000000000002" y="1431.0000000000005" as="sourcePoint"/>
            <mxPoint x="518.0000000000002" y="1398.9999999999995" as="targetPoint"/>
          </mxGeometry>
        </mxCell>
        <mxCell id="1Ny6-iyPV7X26_jnm--a-423" value="" style="endArrow=classic;startArrow=classic;html=1;fontSize=25;" edge="1" parent="1">
          <mxGeometry width="50" height="50" relative="1" as="geometry">
            <mxPoint x="462" y="1416.0000000000005" as="sourcePoint"/>
            <mxPoint x="517" y="1416.0000000000005" as="targetPoint"/>
          </mxGeometry>
        </mxCell>
        <mxCell id="1Ny6-iyPV7X26_jnm--a-424" value="56" style="text;html=1;resizable=0;points=[];align=center;verticalAlign=middle;labelBackgroundColor=#ffffff;fontSize=18;" vertex="1" connectable="0" parent="1Ny6-iyPV7X26_jnm--a-423">
          <mxGeometry x="-0.1048" y="-3" relative="1" as="geometry">
            <mxPoint x="3" y="-2.5" as="offset"/>
          </mxGeometry>
        </mxCell>
        <mxCell id="1Ny6-iyPV7X26_jnm--a-425" value="" style="endArrow=classic;html=1;fontSize=12;" edge="1" parent="1">
          <mxGeometry width="50" height="50" relative="1" as="geometry">
            <mxPoint x="583.0000000000002" y="1373.4999999999995" as="sourcePoint"/>
            <mxPoint x="583.0000000000002" y="1395.4999999999998" as="targetPoint"/>
            <Array as="points">
              <mxPoint x="583" y="1373.5"/>
            </Array>
          </mxGeometry>
        </mxCell>
        <mxCell id="1Ny6-iyPV7X26_jnm--a-426" value="6" style="text;html=1;resizable=0;points=[];autosize=1;align=left;verticalAlign=top;spacingTop=-4;fontSize=18;" vertex="1" parent="1">
          <mxGeometry x="577" y="1353.5" width="16" height="14" as="geometry"/>
        </mxCell>
        <mxCell id="1Ny6-iyPV7X26_jnm--a-427" value="" style="endArrow=classic;html=1;fontSize=12;" edge="1" parent="1">
          <mxGeometry width="50" height="50" relative="1" as="geometry">
            <mxPoint x="521" y="1374.4999999999998" as="sourcePoint"/>
            <mxPoint x="521" y="1396.5" as="targetPoint"/>
            <Array as="points">
              <mxPoint x="521" y="1374.5"/>
            </Array>
          </mxGeometry>
        </mxCell>
        <mxCell id="1Ny6-iyPV7X26_jnm--a-428" value="6" style="text;html=1;resizable=0;points=[];autosize=1;align=left;verticalAlign=top;spacingTop=-4;fontSize=18;" vertex="1" parent="1">
          <mxGeometry x="514.5" y="1353.5" width="16" height="14" as="geometry"/>
        </mxCell>
        <mxCell id="1Ny6-iyPV7X26_jnm--a-429" value="" style="endArrow=none;dashed=1;html=1;fontSize=25;" edge="1" parent="1">
          <mxGeometry width="50" height="50" relative="1" as="geometry">
            <mxPoint x="394" y="1430" as="sourcePoint"/>
            <mxPoint x="394" y="1397.9999999999998" as="targetPoint"/>
          </mxGeometry>
        </mxCell>
        <mxCell id="1Ny6-iyPV7X26_jnm--a-430" value="" style="endArrow=none;dashed=1;html=1;fontSize=25;" edge="1" parent="1">
          <mxGeometry width="50" height="50" relative="1" as="geometry">
            <mxPoint x="399.9999999999998" y="1430" as="sourcePoint"/>
            <mxPoint x="399.9999999999998" y="1397.9999999999998" as="targetPoint"/>
          </mxGeometry>
        </mxCell>
        <mxCell id="1Ny6-iyPV7X26_jnm--a-431" value="" style="endArrow=classic;startArrow=classic;html=1;fontSize=25;" edge="1" parent="1">
          <mxGeometry width="50" height="50" relative="1" as="geometry">
            <mxPoint x="338.0000000000002" y="1415.0000000000002" as="sourcePoint"/>
            <mxPoint x="393.0000000000002" y="1415.0000000000002" as="targetPoint"/>
          </mxGeometry>
        </mxCell>
        <mxCell id="1Ny6-iyPV7X26_jnm--a-432" value="56" style="text;html=1;resizable=0;points=[];align=center;verticalAlign=middle;labelBackgroundColor=#ffffff;fontSize=18;" vertex="1" connectable="0" parent="1Ny6-iyPV7X26_jnm--a-431">
          <mxGeometry x="-0.1048" y="-3" relative="1" as="geometry">
            <mxPoint x="3" y="-2.5" as="offset"/>
          </mxGeometry>
        </mxCell>
        <mxCell id="1Ny6-iyPV7X26_jnm--a-433" value="" style="endArrow=classic;html=1;fontSize=12;" edge="1" parent="1">
          <mxGeometry width="50" height="50" relative="1" as="geometry">
            <mxPoint x="397" y="1374.9999999999995" as="sourcePoint"/>
            <mxPoint x="397" y="1397" as="targetPoint"/>
            <Array as="points">
              <mxPoint x="397" y="1375"/>
            </Array>
          </mxGeometry>
        </mxCell>
        <mxCell id="1Ny6-iyPV7X26_jnm--a-434" value="6" style="text;html=1;resizable=0;points=[];autosize=1;align=left;verticalAlign=top;spacingTop=-4;fontSize=18;" vertex="1" parent="1">
          <mxGeometry x="391" y="1355" width="16" height="14" as="geometry"/>
        </mxCell>
        <mxCell id="1Ny6-iyPV7X26_jnm--a-435" value="" style="endArrow=none;dashed=1;html=1;fontSize=25;" edge="1" parent="1">
          <mxGeometry width="50" height="50" relative="1" as="geometry">
            <mxPoint x="276" y="1431" as="sourcePoint"/>
            <mxPoint x="276" y="1399" as="targetPoint"/>
          </mxGeometry>
        </mxCell>
        <mxCell id="1Ny6-iyPV7X26_jnm--a-436" value="" style="endArrow=none;dashed=1;html=1;fontSize=25;" edge="1" parent="1">
          <mxGeometry width="50" height="50" relative="1" as="geometry">
            <mxPoint x="332" y="1431" as="sourcePoint"/>
            <mxPoint x="332" y="1398.9999999999998" as="targetPoint"/>
          </mxGeometry>
        </mxCell>
        <mxCell id="1Ny6-iyPV7X26_jnm--a-437" value="" style="endArrow=none;dashed=1;html=1;fontSize=25;" edge="1" parent="1">
          <mxGeometry width="50" height="50" relative="1" as="geometry">
            <mxPoint x="338.0000000000002" y="1431" as="sourcePoint"/>
            <mxPoint x="338.0000000000002" y="1398.9999999999998" as="targetPoint"/>
          </mxGeometry>
        </mxCell>
        <mxCell id="1Ny6-iyPV7X26_jnm--a-438" value="" style="endArrow=classic;startArrow=classic;html=1;fontSize=25;" edge="1" parent="1">
          <mxGeometry width="50" height="50" relative="1" as="geometry">
            <mxPoint x="276" y="1416.0000000000002" as="sourcePoint"/>
            <mxPoint x="331" y="1416.0000000000002" as="targetPoint"/>
          </mxGeometry>
        </mxCell>
        <mxCell id="1Ny6-iyPV7X26_jnm--a-439" value="56" style="text;html=1;resizable=0;points=[];align=center;verticalAlign=middle;labelBackgroundColor=#ffffff;fontSize=18;" vertex="1" connectable="0" parent="1Ny6-iyPV7X26_jnm--a-438">
          <mxGeometry x="-0.1048" y="-3" relative="1" as="geometry">
            <mxPoint x="3" y="-2.5" as="offset"/>
          </mxGeometry>
        </mxCell>
        <mxCell id="1Ny6-iyPV7X26_jnm--a-440" value="" style="endArrow=classic;html=1;fontSize=12;" edge="1" parent="1">
          <mxGeometry width="50" height="50" relative="1" as="geometry">
            <mxPoint x="334.9999999999998" y="1375.9999999999998" as="sourcePoint"/>
            <mxPoint x="334.9999999999998" y="1397.9999999999998" as="targetPoint"/>
            <Array as="points">
              <mxPoint x="335" y="1376"/>
            </Array>
          </mxGeometry>
        </mxCell>
        <mxCell id="1Ny6-iyPV7X26_jnm--a-441" value="6" style="text;html=1;resizable=0;points=[];autosize=1;align=left;verticalAlign=top;spacingTop=-4;fontSize=18;" vertex="1" parent="1">
          <mxGeometry x="328.5" y="1355" width="16" height="14" as="geometry"/>
        </mxCell>
        <mxCell id="1Ny6-iyPV7X26_jnm--a-445" value="" style="endArrow=none;dashed=1;html=1;fontSize=25;" edge="1" parent="1">
          <mxGeometry width="50" height="50" relative="1" as="geometry">
            <mxPoint x="455.9999999999998" y="1431" as="sourcePoint"/>
            <mxPoint x="455.9999999999998" y="1398.9999999999998" as="targetPoint"/>
          </mxGeometry>
        </mxCell>
        <mxCell id="1Ny6-iyPV7X26_jnm--a-446" value="" style="endArrow=classic;html=1;fontSize=12;" edge="1" parent="1">
          <mxGeometry width="50" height="50" relative="1" as="geometry">
            <mxPoint x="458.5" y="1376.4999999999995" as="sourcePoint"/>
            <mxPoint x="458.5" y="1398.5" as="targetPoint"/>
            <Array as="points">
              <mxPoint x="458.5" y="1376.5"/>
            </Array>
          </mxGeometry>
        </mxCell>
        <mxCell id="1Ny6-iyPV7X26_jnm--a-447" value="6" style="text;html=1;resizable=0;points=[];autosize=1;align=left;verticalAlign=top;spacingTop=-4;fontSize=18;" vertex="1" parent="1">
          <mxGeometry x="452.5" y="1356.5" width="16" height="14" as="geometry"/>
        </mxCell>
        <mxCell id="1Ny6-iyPV7X26_jnm--a-448" value="" style="endArrow=classic;startArrow=classic;html=1;fontSize=25;" edge="1" parent="1">
          <mxGeometry width="50" height="50" relative="1" as="geometry">
            <mxPoint x="400.5" y="1416.0000000000005" as="sourcePoint"/>
            <mxPoint x="455.5" y="1416.0000000000005" as="targetPoint"/>
          </mxGeometry>
        </mxCell>
        <mxCell id="1Ny6-iyPV7X26_jnm--a-449" value="56" style="text;html=1;resizable=0;points=[];align=center;verticalAlign=middle;labelBackgroundColor=#ffffff;fontSize=18;" vertex="1" connectable="0" parent="1Ny6-iyPV7X26_jnm--a-448">
          <mxGeometry x="-0.1048" y="-3" relative="1" as="geometry">
            <mxPoint x="3" y="-2.5" as="offset"/>
          </mxGeometry>
        </mxCell>
        <mxCell id="1Ny6-iyPV7X26_jnm--a-450" value="" style="endArrow=none;dashed=1;html=1;fontSize=25;" edge="1" parent="1">
          <mxGeometry width="50" height="50" relative="1" as="geometry">
            <mxPoint x="765.4999999999998" y="1431" as="sourcePoint"/>
            <mxPoint x="765.4999999999998" y="1398.9999999999998" as="targetPoint"/>
          </mxGeometry>
        </mxCell>
        <mxCell id="1Ny6-iyPV7X26_jnm--a-451" value="" style="endArrow=classic;html=1;fontSize=12;" edge="1" parent="1">
          <mxGeometry width="50" height="50" relative="1" as="geometry">
            <mxPoint x="768.5" y="1376.4999999999995" as="sourcePoint"/>
            <mxPoint x="768.5" y="1398.5" as="targetPoint"/>
            <Array as="points">
              <mxPoint x="768.5" y="1376.5"/>
            </Array>
          </mxGeometry>
        </mxCell>
        <mxCell id="1Ny6-iyPV7X26_jnm--a-452" value="6" style="text;html=1;resizable=0;points=[];autosize=1;align=left;verticalAlign=top;spacingTop=-4;fontSize=18;" vertex="1" parent="1">
          <mxGeometry x="762.5" y="1356.5" width="16" height="14" as="geometry"/>
        </mxCell>
        <mxCell id="1Ny6-iyPV7X26_jnm--a-453" value="" style="endArrow=classic;startArrow=classic;html=1;fontSize=25;" edge="1" parent="1">
          <mxGeometry width="50" height="50" relative="1" as="geometry">
            <mxPoint x="711" y="1416.0000000000005" as="sourcePoint"/>
            <mxPoint x="766" y="1416.0000000000005" as="targetPoint"/>
          </mxGeometry>
        </mxCell>
        <mxCell id="1Ny6-iyPV7X26_jnm--a-454" value="56" style="text;html=1;resizable=0;points=[];align=center;verticalAlign=middle;labelBackgroundColor=#ffffff;fontSize=18;" vertex="1" connectable="0" parent="1Ny6-iyPV7X26_jnm--a-453">
          <mxGeometry x="-0.1048" y="-3" relative="1" as="geometry">
            <mxPoint x="3" y="-2.5" as="offset"/>
          </mxGeometry>
        </mxCell>
        <mxCell id="1Ny6-iyPV7X26_jnm--a-506" value="" style="group" vertex="1" connectable="0" parent="1">
          <mxGeometry x="61.5" y="2402.5" width="428.5" height="876" as="geometry"/>
        </mxCell>
        <mxCell id="1Ny6-iyPV7X26_jnm--a-455" value="" style="rounded=0;whiteSpace=wrap;html=1;fontSize=18;fontColor=#FF0000;" vertex="1" parent="1Ny6-iyPV7X26_jnm--a-506">
          <mxGeometry y="76" width="418" height="800" as="geometry"/>
        </mxCell>
        <mxCell id="1Ny6-iyPV7X26_jnm--a-457" value="" style="rounded=0;whiteSpace=wrap;html=1;fontSize=18;fontColor=#FF0000;" vertex="1" parent="1Ny6-iyPV7X26_jnm--a-506">
          <mxGeometry x="77" y="76" width="6" height="800" as="geometry"/>
        </mxCell>
        <mxCell id="1Ny6-iyPV7X26_jnm--a-458" value="" style="rounded=0;whiteSpace=wrap;html=1;fontSize=18;fontColor=#FF0000;" vertex="1" parent="1Ny6-iyPV7X26_jnm--a-506">
          <mxGeometry x="83" y="76" width="78" height="800" as="geometry"/>
        </mxCell>
        <mxCell id="1Ny6-iyPV7X26_jnm--a-459" value="" style="rounded=0;whiteSpace=wrap;html=1;fontSize=18;fontColor=#FF0000;" vertex="1" parent="1Ny6-iyPV7X26_jnm--a-506">
          <mxGeometry x="161" y="76" width="6" height="800" as="geometry"/>
        </mxCell>
        <mxCell id="1Ny6-iyPV7X26_jnm--a-460" value="" style="rounded=0;whiteSpace=wrap;html=1;fontSize=18;fontColor=#FF0000;" vertex="1" parent="1Ny6-iyPV7X26_jnm--a-506">
          <mxGeometry x="167" y="76" width="78" height="800" as="geometry"/>
        </mxCell>
        <mxCell id="1Ny6-iyPV7X26_jnm--a-461" value="" style="rounded=0;whiteSpace=wrap;html=1;fontSize=18;fontColor=#FF0000;" vertex="1" parent="1Ny6-iyPV7X26_jnm--a-506">
          <mxGeometry x="245" y="76" width="6" height="800" as="geometry"/>
        </mxCell>
        <mxCell id="1Ny6-iyPV7X26_jnm--a-462" value="" style="rounded=0;whiteSpace=wrap;html=1;fontSize=18;fontColor=#FF0000;" vertex="1" parent="1Ny6-iyPV7X26_jnm--a-506">
          <mxGeometry x="251" y="76" width="78" height="800" as="geometry"/>
        </mxCell>
        <mxCell id="1Ny6-iyPV7X26_jnm--a-463" value="" style="rounded=0;whiteSpace=wrap;html=1;fontSize=18;fontColor=#FF0000;" vertex="1" parent="1Ny6-iyPV7X26_jnm--a-506">
          <mxGeometry x="329" y="76" width="6" height="800" as="geometry"/>
        </mxCell>
        <mxCell id="1Ny6-iyPV7X26_jnm--a-464" value="" style="rounded=0;whiteSpace=wrap;html=1;fontSize=18;fontColor=#FF0000;" vertex="1" parent="1Ny6-iyPV7X26_jnm--a-506">
          <mxGeometry x="335" y="76" width="78" height="800" as="geometry"/>
        </mxCell>
        <mxCell id="1Ny6-iyPV7X26_jnm--a-467" value="" style="endArrow=none;dashed=1;html=1;fontSize=25;" edge="1" parent="1Ny6-iyPV7X26_jnm--a-506">
          <mxGeometry width="50" height="50" relative="1" as="geometry">
            <mxPoint y="76" as="sourcePoint"/>
            <mxPoint y="44" as="targetPoint"/>
          </mxGeometry>
        </mxCell>
        <mxCell id="1Ny6-iyPV7X26_jnm--a-468" value="" style="endArrow=none;dashed=1;html=1;fontSize=25;" edge="1" parent="1Ny6-iyPV7X26_jnm--a-506">
          <mxGeometry width="50" height="50" relative="1" as="geometry">
            <mxPoint x="77" y="76" as="sourcePoint"/>
            <mxPoint x="77" y="44" as="targetPoint"/>
          </mxGeometry>
        </mxCell>
        <mxCell id="1Ny6-iyPV7X26_jnm--a-469" value="" style="endArrow=none;dashed=1;html=1;fontSize=25;" edge="1" parent="1Ny6-iyPV7X26_jnm--a-506">
          <mxGeometry width="50" height="50" relative="1" as="geometry">
            <mxPoint x="83" y="76" as="sourcePoint"/>
            <mxPoint x="83" y="44" as="targetPoint"/>
          </mxGeometry>
        </mxCell>
        <mxCell id="1Ny6-iyPV7X26_jnm--a-470" value="" style="endArrow=classic;startArrow=classic;html=1;fontSize=25;" edge="1" parent="1Ny6-iyPV7X26_jnm--a-506">
          <mxGeometry width="50" height="50" relative="1" as="geometry">
            <mxPoint x="1" y="61" as="sourcePoint"/>
            <mxPoint x="76" y="61" as="targetPoint"/>
          </mxGeometry>
        </mxCell>
        <mxCell id="1Ny6-iyPV7X26_jnm--a-471" value="78" style="text;html=1;resizable=0;points=[];align=center;verticalAlign=middle;labelBackgroundColor=#ffffff;fontSize=18;" vertex="1" connectable="0" parent="1Ny6-iyPV7X26_jnm--a-470">
          <mxGeometry x="-0.1048" y="-3" relative="1" as="geometry">
            <mxPoint x="3" y="-2.5" as="offset"/>
          </mxGeometry>
        </mxCell>
        <mxCell id="1Ny6-iyPV7X26_jnm--a-472" value="" style="endArrow=classic;html=1;fontSize=12;" edge="1" parent="1Ny6-iyPV7X26_jnm--a-506">
          <mxGeometry width="50" height="50" relative="1" as="geometry">
            <mxPoint x="80" y="21" as="sourcePoint"/>
            <mxPoint x="80" y="43" as="targetPoint"/>
            <Array as="points">
              <mxPoint x="80" y="21"/>
            </Array>
          </mxGeometry>
        </mxCell>
        <mxCell id="1Ny6-iyPV7X26_jnm--a-473" value="6" style="text;html=1;resizable=0;points=[];autosize=1;align=left;verticalAlign=top;spacingTop=-4;fontSize=18;" vertex="1" parent="1Ny6-iyPV7X26_jnm--a-506">
          <mxGeometry x="73.5" width="16" height="14" as="geometry"/>
        </mxCell>
        <mxCell id="1Ny6-iyPV7X26_jnm--a-474" value="" style="endArrow=none;dashed=1;html=1;fontSize=25;" edge="1" parent="1Ny6-iyPV7X26_jnm--a-506">
          <mxGeometry width="50" height="50" relative="1" as="geometry">
            <mxPoint x="161" y="76" as="sourcePoint"/>
            <mxPoint x="161" y="44" as="targetPoint"/>
          </mxGeometry>
        </mxCell>
        <mxCell id="1Ny6-iyPV7X26_jnm--a-475" value="" style="endArrow=none;dashed=1;html=1;fontSize=25;" edge="1" parent="1Ny6-iyPV7X26_jnm--a-506">
          <mxGeometry width="50" height="50" relative="1" as="geometry">
            <mxPoint x="167" y="76" as="sourcePoint"/>
            <mxPoint x="167" y="44" as="targetPoint"/>
          </mxGeometry>
        </mxCell>
        <mxCell id="1Ny6-iyPV7X26_jnm--a-476" value="" style="endArrow=classic;startArrow=classic;html=1;fontSize=25;" edge="1" parent="1Ny6-iyPV7X26_jnm--a-506">
          <mxGeometry width="50" height="50" relative="1" as="geometry">
            <mxPoint x="85" y="61" as="sourcePoint"/>
            <mxPoint x="160" y="61" as="targetPoint"/>
          </mxGeometry>
        </mxCell>
        <mxCell id="1Ny6-iyPV7X26_jnm--a-477" value="78" style="text;html=1;resizable=0;points=[];align=center;verticalAlign=middle;labelBackgroundColor=#ffffff;fontSize=18;" vertex="1" connectable="0" parent="1Ny6-iyPV7X26_jnm--a-476">
          <mxGeometry x="-0.1048" y="-3" relative="1" as="geometry">
            <mxPoint x="3" y="-2.5" as="offset"/>
          </mxGeometry>
        </mxCell>
        <mxCell id="1Ny6-iyPV7X26_jnm--a-478" value="" style="endArrow=classic;html=1;fontSize=12;" edge="1" parent="1Ny6-iyPV7X26_jnm--a-506">
          <mxGeometry width="50" height="50" relative="1" as="geometry">
            <mxPoint x="164" y="21" as="sourcePoint"/>
            <mxPoint x="164" y="43" as="targetPoint"/>
            <Array as="points">
              <mxPoint x="164" y="21"/>
            </Array>
          </mxGeometry>
        </mxCell>
        <mxCell id="1Ny6-iyPV7X26_jnm--a-479" value="6" style="text;html=1;resizable=0;points=[];autosize=1;align=left;verticalAlign=top;spacingTop=-4;fontSize=18;" vertex="1" parent="1Ny6-iyPV7X26_jnm--a-506">
          <mxGeometry x="157.5" width="16" height="14" as="geometry"/>
        </mxCell>
        <mxCell id="1Ny6-iyPV7X26_jnm--a-488" value="" style="endArrow=none;dashed=1;html=1;fontSize=25;" edge="1" parent="1Ny6-iyPV7X26_jnm--a-506">
          <mxGeometry width="50" height="50" relative="1" as="geometry">
            <mxPoint x="245" y="76" as="sourcePoint"/>
            <mxPoint x="245" y="44" as="targetPoint"/>
          </mxGeometry>
        </mxCell>
        <mxCell id="1Ny6-iyPV7X26_jnm--a-489" value="" style="endArrow=none;dashed=1;html=1;fontSize=25;" edge="1" parent="1Ny6-iyPV7X26_jnm--a-506">
          <mxGeometry width="50" height="50" relative="1" as="geometry">
            <mxPoint x="251" y="76" as="sourcePoint"/>
            <mxPoint x="251" y="44" as="targetPoint"/>
          </mxGeometry>
        </mxCell>
        <mxCell id="1Ny6-iyPV7X26_jnm--a-490" value="" style="endArrow=classic;html=1;fontSize=12;" edge="1" parent="1Ny6-iyPV7X26_jnm--a-506">
          <mxGeometry width="50" height="50" relative="1" as="geometry">
            <mxPoint x="248" y="21" as="sourcePoint"/>
            <mxPoint x="248" y="43" as="targetPoint"/>
            <Array as="points">
              <mxPoint x="248" y="21"/>
            </Array>
          </mxGeometry>
        </mxCell>
        <mxCell id="1Ny6-iyPV7X26_jnm--a-491" value="6" style="text;html=1;resizable=0;points=[];autosize=1;align=left;verticalAlign=top;spacingTop=-4;fontSize=18;" vertex="1" parent="1Ny6-iyPV7X26_jnm--a-506">
          <mxGeometry x="241.5" width="16" height="14" as="geometry"/>
        </mxCell>
        <mxCell id="1Ny6-iyPV7X26_jnm--a-492" value="" style="endArrow=none;dashed=1;html=1;fontSize=25;" edge="1" parent="1Ny6-iyPV7X26_jnm--a-506">
          <mxGeometry width="50" height="50" relative="1" as="geometry">
            <mxPoint x="329" y="76" as="sourcePoint"/>
            <mxPoint x="329" y="44" as="targetPoint"/>
          </mxGeometry>
        </mxCell>
        <mxCell id="1Ny6-iyPV7X26_jnm--a-493" value="" style="endArrow=none;dashed=1;html=1;fontSize=25;" edge="1" parent="1Ny6-iyPV7X26_jnm--a-506">
          <mxGeometry width="50" height="50" relative="1" as="geometry">
            <mxPoint x="335" y="76" as="sourcePoint"/>
            <mxPoint x="335" y="44" as="targetPoint"/>
          </mxGeometry>
        </mxCell>
        <mxCell id="1Ny6-iyPV7X26_jnm--a-494" value="" style="endArrow=classic;startArrow=classic;html=1;fontSize=25;" edge="1" parent="1Ny6-iyPV7X26_jnm--a-506">
          <mxGeometry width="50" height="50" relative="1" as="geometry">
            <mxPoint x="253" y="61" as="sourcePoint"/>
            <mxPoint x="328" y="61" as="targetPoint"/>
          </mxGeometry>
        </mxCell>
        <mxCell id="1Ny6-iyPV7X26_jnm--a-495" value="78" style="text;html=1;resizable=0;points=[];align=center;verticalAlign=middle;labelBackgroundColor=#ffffff;fontSize=18;" vertex="1" connectable="0" parent="1Ny6-iyPV7X26_jnm--a-494">
          <mxGeometry x="-0.1048" y="-3" relative="1" as="geometry">
            <mxPoint x="3" y="-2.5" as="offset"/>
          </mxGeometry>
        </mxCell>
        <mxCell id="1Ny6-iyPV7X26_jnm--a-496" value="" style="endArrow=classic;html=1;fontSize=12;" edge="1" parent="1Ny6-iyPV7X26_jnm--a-506">
          <mxGeometry width="50" height="50" relative="1" as="geometry">
            <mxPoint x="332" y="21" as="sourcePoint"/>
            <mxPoint x="332" y="43" as="targetPoint"/>
            <Array as="points">
              <mxPoint x="332" y="21"/>
            </Array>
          </mxGeometry>
        </mxCell>
        <mxCell id="1Ny6-iyPV7X26_jnm--a-497" value="6" style="text;html=1;resizable=0;points=[];autosize=1;align=left;verticalAlign=top;spacingTop=-4;fontSize=18;" vertex="1" parent="1Ny6-iyPV7X26_jnm--a-506">
          <mxGeometry x="325.5" width="16" height="14" as="geometry"/>
        </mxCell>
        <mxCell id="1Ny6-iyPV7X26_jnm--a-498" value="" style="endArrow=classic;startArrow=classic;html=1;fontSize=25;" edge="1" parent="1Ny6-iyPV7X26_jnm--a-506">
          <mxGeometry width="50" height="50" relative="1" as="geometry">
            <mxPoint x="169" y="61" as="sourcePoint"/>
            <mxPoint x="244" y="61" as="targetPoint"/>
          </mxGeometry>
        </mxCell>
        <mxCell id="1Ny6-iyPV7X26_jnm--a-499" value="78" style="text;html=1;resizable=0;points=[];align=center;verticalAlign=middle;labelBackgroundColor=#ffffff;fontSize=18;" vertex="1" connectable="0" parent="1Ny6-iyPV7X26_jnm--a-498">
          <mxGeometry x="-0.1048" y="-3" relative="1" as="geometry">
            <mxPoint x="3" y="-2.5" as="offset"/>
          </mxGeometry>
        </mxCell>
        <mxCell id="1Ny6-iyPV7X26_jnm--a-500" value="" style="endArrow=none;dashed=1;html=1;fontSize=25;" edge="1" parent="1Ny6-iyPV7X26_jnm--a-506">
          <mxGeometry width="50" height="50" relative="1" as="geometry">
            <mxPoint x="418" y="76" as="sourcePoint"/>
            <mxPoint x="418" y="44.000000000000455" as="targetPoint"/>
          </mxGeometry>
        </mxCell>
        <mxCell id="1Ny6-iyPV7X26_jnm--a-501" value="" style="endArrow=none;dashed=1;html=1;fontSize=25;" edge="1" parent="1Ny6-iyPV7X26_jnm--a-506">
          <mxGeometry width="50" height="50" relative="1" as="geometry">
            <mxPoint x="413" y="76" as="sourcePoint"/>
            <mxPoint x="413" y="44.000000000000455" as="targetPoint"/>
          </mxGeometry>
        </mxCell>
        <mxCell id="1Ny6-iyPV7X26_jnm--a-502" value="" style="endArrow=classic;html=1;fontSize=12;" edge="1" parent="1Ny6-iyPV7X26_jnm--a-506">
          <mxGeometry width="50" height="50" relative="1" as="geometry">
            <mxPoint x="416" y="22.5" as="sourcePoint"/>
            <mxPoint x="416" y="44.5" as="targetPoint"/>
            <Array as="points">
              <mxPoint x="416" y="22.5"/>
            </Array>
          </mxGeometry>
        </mxCell>
        <mxCell id="1Ny6-iyPV7X26_jnm--a-503" value="4" style="text;html=1;resizable=0;points=[];autosize=1;align=left;verticalAlign=top;spacingTop=-4;fontSize=18;fontStyle=1;labelBackgroundColor=#ffffff;fontColor=#FF0000;" vertex="1" parent="1Ny6-iyPV7X26_jnm--a-506">
          <mxGeometry x="408.5" y="1.5" width="20" height="22" as="geometry"/>
        </mxCell>
        <mxCell id="1Ny6-iyPV7X26_jnm--a-504" value="" style="endArrow=classic;startArrow=classic;html=1;fontSize=25;" edge="1" parent="1Ny6-iyPV7X26_jnm--a-506">
          <mxGeometry width="50" height="50" relative="1" as="geometry">
            <mxPoint x="338" y="61" as="sourcePoint"/>
            <mxPoint x="413" y="61" as="targetPoint"/>
          </mxGeometry>
        </mxCell>
        <mxCell id="1Ny6-iyPV7X26_jnm--a-505" value="78" style="text;html=1;resizable=0;points=[];align=center;verticalAlign=middle;labelBackgroundColor=#ffffff;fontSize=18;" vertex="1" connectable="0" parent="1Ny6-iyPV7X26_jnm--a-504">
          <mxGeometry x="-0.1048" y="-3" relative="1" as="geometry">
            <mxPoint x="3" y="-2.5" as="offset"/>
          </mxGeometry>
        </mxCell>
        <mxCell id="1Ny6-iyPV7X26_jnm--a-507" value="" style="group" vertex="1" connectable="0" parent="1">
          <mxGeometry x="521.5" y="2401" width="428.5" height="876" as="geometry"/>
        </mxCell>
        <mxCell id="1Ny6-iyPV7X26_jnm--a-508" value="" style="rounded=0;whiteSpace=wrap;html=1;fontSize=18;fontColor=#FF0000;" vertex="1" parent="1Ny6-iyPV7X26_jnm--a-507">
          <mxGeometry y="76" width="418" height="800" as="geometry"/>
        </mxCell>
        <mxCell id="1Ny6-iyPV7X26_jnm--a-509" value="" style="rounded=0;whiteSpace=wrap;html=1;fontSize=18;fontColor=#FF0000;" vertex="1" parent="1Ny6-iyPV7X26_jnm--a-507">
          <mxGeometry x="77" y="76" width="6" height="800" as="geometry"/>
        </mxCell>
        <mxCell id="1Ny6-iyPV7X26_jnm--a-510" value="" style="rounded=0;whiteSpace=wrap;html=1;fontSize=18;fontColor=#FF0000;" vertex="1" parent="1Ny6-iyPV7X26_jnm--a-507">
          <mxGeometry x="83" y="76" width="78" height="800" as="geometry"/>
        </mxCell>
        <mxCell id="1Ny6-iyPV7X26_jnm--a-511" value="" style="rounded=0;whiteSpace=wrap;html=1;fontSize=18;fontColor=#FF0000;" vertex="1" parent="1Ny6-iyPV7X26_jnm--a-507">
          <mxGeometry x="161" y="76" width="6" height="800" as="geometry"/>
        </mxCell>
        <mxCell id="1Ny6-iyPV7X26_jnm--a-512" value="" style="rounded=0;whiteSpace=wrap;html=1;fontSize=18;fontColor=#FF0000;" vertex="1" parent="1Ny6-iyPV7X26_jnm--a-507">
          <mxGeometry x="167" y="76" width="78" height="800" as="geometry"/>
        </mxCell>
        <mxCell id="1Ny6-iyPV7X26_jnm--a-513" value="" style="rounded=0;whiteSpace=wrap;html=1;fontSize=18;fontColor=#FF0000;" vertex="1" parent="1Ny6-iyPV7X26_jnm--a-507">
          <mxGeometry x="245" y="76" width="6" height="800" as="geometry"/>
        </mxCell>
        <mxCell id="1Ny6-iyPV7X26_jnm--a-514" value="" style="rounded=0;whiteSpace=wrap;html=1;fontSize=18;fontColor=#FF0000;" vertex="1" parent="1Ny6-iyPV7X26_jnm--a-507">
          <mxGeometry x="251" y="76" width="78" height="800" as="geometry"/>
        </mxCell>
        <mxCell id="1Ny6-iyPV7X26_jnm--a-515" value="" style="rounded=0;whiteSpace=wrap;html=1;fontSize=18;fontColor=#FF0000;" vertex="1" parent="1Ny6-iyPV7X26_jnm--a-507">
          <mxGeometry x="329" y="76" width="6" height="800" as="geometry"/>
        </mxCell>
        <mxCell id="1Ny6-iyPV7X26_jnm--a-516" value="" style="rounded=0;whiteSpace=wrap;html=1;fontSize=18;fontColor=#FF0000;" vertex="1" parent="1Ny6-iyPV7X26_jnm--a-507">
          <mxGeometry x="335" y="76" width="78" height="800" as="geometry"/>
        </mxCell>
        <mxCell id="1Ny6-iyPV7X26_jnm--a-517" value="" style="endArrow=none;dashed=1;html=1;fontSize=25;" edge="1" parent="1Ny6-iyPV7X26_jnm--a-507">
          <mxGeometry width="50" height="50" relative="1" as="geometry">
            <mxPoint y="76" as="sourcePoint"/>
            <mxPoint y="44" as="targetPoint"/>
          </mxGeometry>
        </mxCell>
        <mxCell id="1Ny6-iyPV7X26_jnm--a-518" value="" style="endArrow=none;dashed=1;html=1;fontSize=25;" edge="1" parent="1Ny6-iyPV7X26_jnm--a-507">
          <mxGeometry width="50" height="50" relative="1" as="geometry">
            <mxPoint x="77" y="76" as="sourcePoint"/>
            <mxPoint x="77" y="44" as="targetPoint"/>
          </mxGeometry>
        </mxCell>
        <mxCell id="1Ny6-iyPV7X26_jnm--a-519" value="" style="endArrow=none;dashed=1;html=1;fontSize=25;" edge="1" parent="1Ny6-iyPV7X26_jnm--a-507">
          <mxGeometry width="50" height="50" relative="1" as="geometry">
            <mxPoint x="83" y="76" as="sourcePoint"/>
            <mxPoint x="83" y="44" as="targetPoint"/>
          </mxGeometry>
        </mxCell>
        <mxCell id="1Ny6-iyPV7X26_jnm--a-520" value="" style="endArrow=classic;startArrow=classic;html=1;fontSize=25;" edge="1" parent="1Ny6-iyPV7X26_jnm--a-507">
          <mxGeometry width="50" height="50" relative="1" as="geometry">
            <mxPoint x="1" y="61" as="sourcePoint"/>
            <mxPoint x="76" y="61" as="targetPoint"/>
          </mxGeometry>
        </mxCell>
        <mxCell id="1Ny6-iyPV7X26_jnm--a-521" value="78" style="text;html=1;resizable=0;points=[];align=center;verticalAlign=middle;labelBackgroundColor=#ffffff;fontSize=18;" vertex="1" connectable="0" parent="1Ny6-iyPV7X26_jnm--a-520">
          <mxGeometry x="-0.1048" y="-3" relative="1" as="geometry">
            <mxPoint x="3" y="-2.5" as="offset"/>
          </mxGeometry>
        </mxCell>
        <mxCell id="1Ny6-iyPV7X26_jnm--a-522" value="" style="endArrow=classic;html=1;fontSize=12;" edge="1" parent="1Ny6-iyPV7X26_jnm--a-507">
          <mxGeometry width="50" height="50" relative="1" as="geometry">
            <mxPoint x="80" y="21" as="sourcePoint"/>
            <mxPoint x="80" y="43" as="targetPoint"/>
            <Array as="points">
              <mxPoint x="80" y="21"/>
            </Array>
          </mxGeometry>
        </mxCell>
        <mxCell id="1Ny6-iyPV7X26_jnm--a-523" value="6" style="text;html=1;resizable=0;points=[];autosize=1;align=left;verticalAlign=top;spacingTop=-4;fontSize=18;" vertex="1" parent="1Ny6-iyPV7X26_jnm--a-507">
          <mxGeometry x="73.5" width="16" height="14" as="geometry"/>
        </mxCell>
        <mxCell id="1Ny6-iyPV7X26_jnm--a-524" value="" style="endArrow=none;dashed=1;html=1;fontSize=25;" edge="1" parent="1Ny6-iyPV7X26_jnm--a-507">
          <mxGeometry width="50" height="50" relative="1" as="geometry">
            <mxPoint x="161" y="76" as="sourcePoint"/>
            <mxPoint x="161" y="44" as="targetPoint"/>
          </mxGeometry>
        </mxCell>
        <mxCell id="1Ny6-iyPV7X26_jnm--a-525" value="" style="endArrow=none;dashed=1;html=1;fontSize=25;" edge="1" parent="1Ny6-iyPV7X26_jnm--a-507">
          <mxGeometry width="50" height="50" relative="1" as="geometry">
            <mxPoint x="167" y="76" as="sourcePoint"/>
            <mxPoint x="167" y="44" as="targetPoint"/>
          </mxGeometry>
        </mxCell>
        <mxCell id="1Ny6-iyPV7X26_jnm--a-526" value="" style="endArrow=classic;startArrow=classic;html=1;fontSize=25;" edge="1" parent="1Ny6-iyPV7X26_jnm--a-507">
          <mxGeometry width="50" height="50" relative="1" as="geometry">
            <mxPoint x="85" y="61" as="sourcePoint"/>
            <mxPoint x="160" y="61" as="targetPoint"/>
          </mxGeometry>
        </mxCell>
        <mxCell id="1Ny6-iyPV7X26_jnm--a-527" value="78" style="text;html=1;resizable=0;points=[];align=center;verticalAlign=middle;labelBackgroundColor=#ffffff;fontSize=18;" vertex="1" connectable="0" parent="1Ny6-iyPV7X26_jnm--a-526">
          <mxGeometry x="-0.1048" y="-3" relative="1" as="geometry">
            <mxPoint x="3" y="-2.5" as="offset"/>
          </mxGeometry>
        </mxCell>
        <mxCell id="1Ny6-iyPV7X26_jnm--a-528" value="" style="endArrow=classic;html=1;fontSize=12;" edge="1" parent="1Ny6-iyPV7X26_jnm--a-507">
          <mxGeometry width="50" height="50" relative="1" as="geometry">
            <mxPoint x="164" y="21" as="sourcePoint"/>
            <mxPoint x="164" y="43" as="targetPoint"/>
            <Array as="points">
              <mxPoint x="164" y="21"/>
            </Array>
          </mxGeometry>
        </mxCell>
        <mxCell id="1Ny6-iyPV7X26_jnm--a-529" value="6" style="text;html=1;resizable=0;points=[];autosize=1;align=left;verticalAlign=top;spacingTop=-4;fontSize=18;" vertex="1" parent="1Ny6-iyPV7X26_jnm--a-507">
          <mxGeometry x="157.5" width="16" height="14" as="geometry"/>
        </mxCell>
        <mxCell id="1Ny6-iyPV7X26_jnm--a-530" value="" style="endArrow=none;dashed=1;html=1;fontSize=25;" edge="1" parent="1Ny6-iyPV7X26_jnm--a-507">
          <mxGeometry width="50" height="50" relative="1" as="geometry">
            <mxPoint x="245" y="76" as="sourcePoint"/>
            <mxPoint x="245" y="44" as="targetPoint"/>
          </mxGeometry>
        </mxCell>
        <mxCell id="1Ny6-iyPV7X26_jnm--a-531" value="" style="endArrow=none;dashed=1;html=1;fontSize=25;" edge="1" parent="1Ny6-iyPV7X26_jnm--a-507">
          <mxGeometry width="50" height="50" relative="1" as="geometry">
            <mxPoint x="251" y="76" as="sourcePoint"/>
            <mxPoint x="251" y="44" as="targetPoint"/>
          </mxGeometry>
        </mxCell>
        <mxCell id="1Ny6-iyPV7X26_jnm--a-532" value="" style="endArrow=classic;html=1;fontSize=12;" edge="1" parent="1Ny6-iyPV7X26_jnm--a-507">
          <mxGeometry width="50" height="50" relative="1" as="geometry">
            <mxPoint x="248" y="21" as="sourcePoint"/>
            <mxPoint x="248" y="43" as="targetPoint"/>
            <Array as="points">
              <mxPoint x="248" y="21"/>
            </Array>
          </mxGeometry>
        </mxCell>
        <mxCell id="1Ny6-iyPV7X26_jnm--a-533" value="6" style="text;html=1;resizable=0;points=[];autosize=1;align=left;verticalAlign=top;spacingTop=-4;fontSize=18;" vertex="1" parent="1Ny6-iyPV7X26_jnm--a-507">
          <mxGeometry x="241.5" width="16" height="14" as="geometry"/>
        </mxCell>
        <mxCell id="1Ny6-iyPV7X26_jnm--a-534" value="" style="endArrow=none;dashed=1;html=1;fontSize=25;" edge="1" parent="1Ny6-iyPV7X26_jnm--a-507">
          <mxGeometry width="50" height="50" relative="1" as="geometry">
            <mxPoint x="329" y="76" as="sourcePoint"/>
            <mxPoint x="329" y="44" as="targetPoint"/>
          </mxGeometry>
        </mxCell>
        <mxCell id="1Ny6-iyPV7X26_jnm--a-535" value="" style="endArrow=none;dashed=1;html=1;fontSize=25;" edge="1" parent="1Ny6-iyPV7X26_jnm--a-507">
          <mxGeometry width="50" height="50" relative="1" as="geometry">
            <mxPoint x="335" y="76" as="sourcePoint"/>
            <mxPoint x="335" y="44" as="targetPoint"/>
          </mxGeometry>
        </mxCell>
        <mxCell id="1Ny6-iyPV7X26_jnm--a-536" value="" style="endArrow=classic;startArrow=classic;html=1;fontSize=25;" edge="1" parent="1Ny6-iyPV7X26_jnm--a-507">
          <mxGeometry width="50" height="50" relative="1" as="geometry">
            <mxPoint x="253" y="61" as="sourcePoint"/>
            <mxPoint x="328" y="61" as="targetPoint"/>
          </mxGeometry>
        </mxCell>
        <mxCell id="1Ny6-iyPV7X26_jnm--a-537" value="78" style="text;html=1;resizable=0;points=[];align=center;verticalAlign=middle;labelBackgroundColor=#ffffff;fontSize=18;" vertex="1" connectable="0" parent="1Ny6-iyPV7X26_jnm--a-536">
          <mxGeometry x="-0.1048" y="-3" relative="1" as="geometry">
            <mxPoint x="3" y="-2.5" as="offset"/>
          </mxGeometry>
        </mxCell>
        <mxCell id="1Ny6-iyPV7X26_jnm--a-538" value="" style="endArrow=classic;html=1;fontSize=12;" edge="1" parent="1Ny6-iyPV7X26_jnm--a-507">
          <mxGeometry width="50" height="50" relative="1" as="geometry">
            <mxPoint x="332" y="21" as="sourcePoint"/>
            <mxPoint x="332" y="43" as="targetPoint"/>
            <Array as="points">
              <mxPoint x="332" y="21"/>
            </Array>
          </mxGeometry>
        </mxCell>
        <mxCell id="1Ny6-iyPV7X26_jnm--a-539" value="6" style="text;html=1;resizable=0;points=[];autosize=1;align=left;verticalAlign=top;spacingTop=-4;fontSize=18;" vertex="1" parent="1Ny6-iyPV7X26_jnm--a-507">
          <mxGeometry x="325.5" width="16" height="14" as="geometry"/>
        </mxCell>
        <mxCell id="1Ny6-iyPV7X26_jnm--a-540" value="" style="endArrow=classic;startArrow=classic;html=1;fontSize=25;" edge="1" parent="1Ny6-iyPV7X26_jnm--a-507">
          <mxGeometry width="50" height="50" relative="1" as="geometry">
            <mxPoint x="169" y="61" as="sourcePoint"/>
            <mxPoint x="244" y="61" as="targetPoint"/>
          </mxGeometry>
        </mxCell>
        <mxCell id="1Ny6-iyPV7X26_jnm--a-541" value="78" style="text;html=1;resizable=0;points=[];align=center;verticalAlign=middle;labelBackgroundColor=#ffffff;fontSize=18;" vertex="1" connectable="0" parent="1Ny6-iyPV7X26_jnm--a-540">
          <mxGeometry x="-0.1048" y="-3" relative="1" as="geometry">
            <mxPoint x="3" y="-2.5" as="offset"/>
          </mxGeometry>
        </mxCell>
        <mxCell id="1Ny6-iyPV7X26_jnm--a-542" value="" style="endArrow=none;dashed=1;html=1;fontSize=25;" edge="1" parent="1Ny6-iyPV7X26_jnm--a-507">
          <mxGeometry width="50" height="50" relative="1" as="geometry">
            <mxPoint x="418" y="76" as="sourcePoint"/>
            <mxPoint x="418" y="44.000000000000455" as="targetPoint"/>
          </mxGeometry>
        </mxCell>
        <mxCell id="1Ny6-iyPV7X26_jnm--a-543" value="" style="endArrow=none;dashed=1;html=1;fontSize=25;" edge="1" parent="1Ny6-iyPV7X26_jnm--a-507">
          <mxGeometry width="50" height="50" relative="1" as="geometry">
            <mxPoint x="413" y="76" as="sourcePoint"/>
            <mxPoint x="413" y="44.000000000000455" as="targetPoint"/>
          </mxGeometry>
        </mxCell>
        <mxCell id="1Ny6-iyPV7X26_jnm--a-544" value="" style="endArrow=classic;html=1;fontSize=12;" edge="1" parent="1Ny6-iyPV7X26_jnm--a-507">
          <mxGeometry width="50" height="50" relative="1" as="geometry">
            <mxPoint x="416" y="22.5" as="sourcePoint"/>
            <mxPoint x="416" y="44.5" as="targetPoint"/>
            <Array as="points">
              <mxPoint x="416" y="22.5"/>
            </Array>
          </mxGeometry>
        </mxCell>
        <mxCell id="1Ny6-iyPV7X26_jnm--a-545" value="4" style="text;html=1;resizable=0;points=[];autosize=1;align=left;verticalAlign=top;spacingTop=-4;fontSize=18;fontStyle=1;labelBackgroundColor=#ffffff;fontColor=#FF0000;" vertex="1" parent="1Ny6-iyPV7X26_jnm--a-507">
          <mxGeometry x="408.5" y="1.5" width="20" height="22" as="geometry"/>
        </mxCell>
        <mxCell id="1Ny6-iyPV7X26_jnm--a-546" value="" style="endArrow=classic;startArrow=classic;html=1;fontSize=25;" edge="1" parent="1Ny6-iyPV7X26_jnm--a-507">
          <mxGeometry width="50" height="50" relative="1" as="geometry">
            <mxPoint x="338" y="61" as="sourcePoint"/>
            <mxPoint x="413" y="61" as="targetPoint"/>
          </mxGeometry>
        </mxCell>
        <mxCell id="1Ny6-iyPV7X26_jnm--a-547" value="78" style="text;html=1;resizable=0;points=[];align=center;verticalAlign=middle;labelBackgroundColor=#ffffff;fontSize=18;" vertex="1" connectable="0" parent="1Ny6-iyPV7X26_jnm--a-546">
          <mxGeometry x="-0.1048" y="-3" relative="1" as="geometry">
            <mxPoint x="3" y="-2.5" as="offset"/>
          </mxGeometry>
        </mxCell>
        <mxCell id="1Ny6-iyPV7X26_jnm--a-548" value="背板左边隐形门（418mm）" style="text;html=1;resizable=0;points=[];autosize=1;align=left;verticalAlign=top;spacingTop=-4;fontSize=25;" vertex="1" parent="1">
          <mxGeometry x="131.5" y="2349" width="318" height="30" as="geometry"/>
        </mxCell>
        <mxCell id="1Ny6-iyPV7X26_jnm--a-549" value="背板右边隐形门（418mm）&lt;br&gt;同左边&lt;br&gt;" style="text;html=1;resizable=0;points=[];autosize=1;align=left;verticalAlign=top;spacingTop=-4;fontSize=25;" vertex="1" parent="1">
          <mxGeometry x="558" y="2342" width="318" height="59" as="geometry"/>
        </mxCell>
      </root>
    </mxGraphModel>
  </diagram>
</mxfile>
